<svg width="25" height="25" viewBox="0 0 25 25" fill="none" xmlns="http://www.w3.org/2000/svg">
<path fill-rule="evenodd" clip-rule="evenodd" d="M9.90792 14.5976C13.1669 14.5976 17.4999 14.9646 17.4999 18.1396C17.4999 21.4841 12.451 21.6848 10.2853 21.6969L9.49902 21.6969C7.18986 21.6849 2.31592 21.4853 2.31592 18.1596C2.31592 14.8113 7.36481 14.6104 9.53051 14.5984L9.79071 14.5977C9.83126 14.5976 9.87036 14.5976 9.90792 14.5976ZM9.90792 16.0976C7.12892 16.0976 3.81592 16.4546 3.81592 18.1596C3.81592 19.5116 5.86592 20.1976 9.90792 20.1976C13.9499 20.1976 15.9999 19.5046 15.9999 18.1396C15.9999 16.7846 13.9499 16.0976 9.90792 16.0976ZM19.0226 14.1305C21.7286 14.5355 22.2956 15.7885 22.2956 16.7675C22.2956 17.4965 21.9806 18.4835 20.4776 19.0525C20.3906 19.0855 20.3006 19.1015 20.2116 19.1015C19.9086 19.1015 19.6236 18.9165 19.5106 18.6175C19.3636 18.2305 19.5586 17.7965 19.9456 17.6505C20.7956 17.3285 20.7956 16.9355 20.7956 16.7675C20.7956 16.2005 20.1246 15.8125 18.8016 15.6155C18.3916 15.5535 18.1086 15.1715 18.1696 14.7625C18.2316 14.3525 18.6206 14.0775 19.0226 14.1305ZM9.90792 2.64062C12.7389 2.64062 15.043 4.94463 15.043 7.77563C15.0489 9.13963 14.5199 10.4276 13.5559 11.3976C12.5939 12.3686 11.3089 12.9056 9.94192 12.9106H9.90792C7.07592 12.9106 4.77192 10.6066 4.77192 7.77563C4.77192 4.94463 7.07592 2.64062 9.90792 2.64062ZM16.9955 3.76443C18.9605 4.08643 20.3865 5.76743 20.3865 7.76043C20.3825 9.76543 18.8855 11.4874 16.9035 11.7654C16.8685 11.7704 16.8335 11.7724 16.7985 11.7724C16.4305 11.7724 16.1095 11.5014 16.0565 11.1264C15.9995 10.7164 16.2845 10.3364 16.6945 10.2794C17.9425 10.1044 18.8845 9.02143 18.8865 7.75943C18.8865 6.50543 17.9885 5.44742 16.7535 5.24542C16.3445 5.17742 16.0675 4.79242 16.1345 4.38342C16.2015 3.97442 16.5885 3.69942 16.9955 3.76443ZM9.90792 4.14062C7.90292 4.14062 6.27192 5.77163 6.27192 7.77563C6.27192 9.77962 7.90292 11.4106 9.90792 11.4106H9.93892C10.9029 11.4066 11.8109 11.0276 12.4919 10.3406C13.1739 9.65562 13.5469 8.74463 13.5429 7.77863C13.5429 5.77163 11.9119 4.14062 9.90792 4.14062Z" fill="white"/>
</svg>
