<svg width="25" height="25" viewBox="0 0 25 25" fill="none" xmlns="http://www.w3.org/2000/svg">
<path fill-rule="evenodd" clip-rule="evenodd" d="M12.2025 15.1249L12.3154 15.125L12.568 15.1258C14.4986 15.1385 18.9105 15.3336 18.9105 18.3239C18.9105 21.2947 14.6524 21.4884 12.5981 21.5011L11.837 21.5011C9.9063 21.4883 5.49352 21.2936 5.49352 18.3069C5.49352 15.3325 9.9063 15.1385 11.837 15.1258L12.0896 15.125C12.1288 15.1249 12.1665 15.1249 12.2025 15.1249ZM12.2025 16.6249C9.82652 16.6249 6.99352 16.9169 6.99352 18.3069C6.99352 19.6655 9.65742 19.9831 11.9854 20.0011L12.2025 20.0019C14.5785 20.0019 17.4105 19.7109 17.4105 18.3239C17.4105 16.9199 14.5785 16.6249 12.2025 16.6249ZM20.1561 14.7191C22.5791 15.0821 23.0881 16.2201 23.0881 17.1111C23.0881 17.6551 22.8741 18.6481 21.4441 19.1931C21.3561 19.2261 21.2661 19.2421 21.1771 19.2421C20.8751 19.2421 20.5901 19.0581 20.4761 18.7591C20.3281 18.3721 20.5231 17.9381 20.9101 17.7911C21.5881 17.5331 21.5881 17.2481 21.5881 17.1111C21.5881 16.6731 21.0311 16.3671 19.9331 16.2031C19.5241 16.1411 19.2411 15.7601 19.3021 15.3491C19.3631 14.9391 19.7431 14.6661 20.1561 14.7191ZM5.10192 15.3491C5.16292 15.7601 4.87992 16.1411 4.47092 16.2031C3.37292 16.3671 2.81592 16.6731 2.81592 17.1111C2.81592 17.2481 2.81592 17.5321 3.49492 17.7911C3.88192 17.9381 4.07692 18.3721 3.92892 18.7591C3.81492 19.0581 3.52992 19.2421 3.22792 19.2421C3.13892 19.2421 3.04892 19.2261 2.96092 19.1931C1.52992 18.6471 1.31592 17.6541 1.31592 17.1111C1.31592 16.2211 1.82492 15.0821 4.24892 14.7191C4.66192 14.6671 5.03992 14.9391 5.10192 15.3491ZM12.2025 4.71094C14.7225 4.71094 16.7715 6.76094 16.7715 9.27994C16.7715 11.7989 14.7225 13.8489 12.2025 13.8489H12.1755C10.9555 13.8449 9.81252 13.3669 8.95652 12.5029C8.09852 11.6399 7.62952 10.4939 7.63448 9.27694C7.63448 6.76094 9.68352 4.71094 12.2025 4.71094ZM12.2025 6.21094C10.5105 6.21094 9.1345 7.58794 9.1345 9.27994C9.13152 10.0999 9.44552 10.8669 10.0205 11.4459C10.5955 12.0249 11.3615 12.3459 12.1775 12.3489L12.2025 13.0989V12.3489C13.8945 12.3489 15.2715 10.9729 15.2715 9.27994C15.2715 7.58794 13.8945 6.21094 12.2025 6.21094ZM18.3915 5.69044C20.1495 5.97944 21.4265 7.48344 21.4265 9.26644C21.4225 11.0614 20.0815 12.6014 18.3065 12.8504C18.2715 12.8554 18.2365 12.8574 18.2025 12.8574C17.8345 12.8574 17.5135 12.5864 17.4605 12.2114C17.4035 11.8004 17.6885 11.4214 18.0995 11.3644C19.1395 11.2184 19.9245 10.3164 19.9265 9.26444C19.9265 8.22144 19.1785 7.33944 18.1475 7.17044C17.7395 7.10344 17.4625 6.71744 17.5295 6.30844C17.5975 5.89944 17.9805 5.62544 18.3915 5.69044ZM6.87552 6.30844C6.94252 6.71744 6.66552 7.10344 6.25752 7.17044C5.22652 7.33944 4.47852 8.22144 4.47852 9.26644C4.48052 10.3164 5.26552 11.2194 6.30452 11.3644C6.71552 11.4214 7.00052 11.8004 6.94352 12.2114C6.89052 12.5864 6.56952 12.8574 6.20152 12.8574C6.16752 12.8574 6.13252 12.8554 6.09752 12.8504C4.32252 12.6014 2.98252 11.0614 2.97852 9.26844C2.97852 7.48344 4.25552 5.97944 6.01352 5.69044C6.43452 5.62444 6.80752 5.90144 6.87552 6.30844Z" fill="white"/>
</svg>
