<svg width="25" height="25" viewBox="0 0 25 25" fill="none" xmlns="http://www.w3.org/2000/svg">
<path fill-rule="evenodd" clip-rule="evenodd" d="M15.7046 3.36554C16.1186 3.36554 16.4546 3.70154 16.4546 4.11554C16.4546 4.52954 16.1186 4.86554 15.7046 4.86554H8.43662C5.92862 4.86554 4.30762 6.58954 4.30762 9.25954V17.3415C4.30762 20.0465 5.88962 21.7265 8.43662 21.7265H17.0406C19.5486 21.7265 21.1696 20.0055 21.1696 17.3415V10.3025C21.1696 9.88854 21.5056 9.55254 21.9196 9.55254C22.3336 9.55254 22.6696 9.88854 22.6696 10.3025V17.3415C22.6696 20.8615 20.4076 23.2265 17.0406 23.2265H8.43662C5.06962 23.2265 2.80762 20.8615 2.80762 17.3415V9.25954C2.80762 5.73454 5.06962 3.36554 8.43662 3.36554H15.7046ZM17.82 10.1953C18.148 10.4493 18.208 10.9203 17.954 11.2473L15.024 15.0273C14.902 15.1853 14.722 15.2883 14.524 15.3123C14.324 15.3393 14.126 15.2813 13.968 15.1583L11.15 12.9443L8.61902 16.2333C8.47102 16.4253 8.24902 16.5263 8.02402 16.5263C7.86402 16.5263 7.70302 16.4753 7.56702 16.3713C7.23902 16.1183 7.17702 15.6473 7.43002 15.3193L10.423 11.4293C10.545 11.2703 10.726 11.1673 10.924 11.1423C11.126 11.1163 11.324 11.1723 11.481 11.2973L14.301 13.5123L16.768 10.3293C17.022 10.0003 17.492 9.93934 17.82 10.1953ZM20.775 2.52344C22.249 2.52344 23.447 3.72144 23.447 5.19544C23.447 6.66944 22.249 7.86844 20.775 7.86844C19.302 7.86844 18.103 6.66944 18.103 5.19544C18.103 3.72144 19.302 2.52344 20.775 2.52344ZM20.775 4.02344C20.129 4.02344 19.603 4.54844 19.603 5.19544C19.603 5.84144 20.129 6.36844 20.775 6.36844C21.421 6.36844 21.947 5.84144 21.947 5.19544C21.947 4.54844 21.421 4.02344 20.775 4.02344Z" fill="white"/>
</svg>
