<svg width="110" height="25" viewBox="0 0 110 25" fill="none" xmlns="http://www.w3.org/2000/svg">
<path d="M40.6299 17.4482H39.3819C39.2419 17.4482 39.1259 17.4142 39.0339 17.3462C38.9459 17.2742 38.8819 17.1862 38.8419 17.0822L38.1939 15.3122H34.5999L33.9519 17.0822C33.9199 17.1742 33.8559 17.2582 33.7599 17.3342C33.6679 17.4102 33.5539 17.4482 33.4179 17.4482H32.1639L35.5719 8.77224H37.2219L40.6299 17.4482ZM35.0139 14.1722H37.7799L36.7239 11.2862C36.6759 11.1582 36.6219 11.0082 36.5619 10.8362C36.5059 10.6602 36.4499 10.4702 36.3939 10.2662C36.3379 10.4702 36.2819 10.6602 36.2259 10.8362C36.1739 11.0122 36.1219 11.1662 36.0699 11.2982L35.0139 14.1722ZM49.2275 13.1102C49.2275 13.7462 49.1215 14.3302 48.9095 14.8622C48.6975 15.3942 48.3995 15.8522 48.0155 16.2362C47.6315 16.6202 47.1695 16.9182 46.6295 17.1302C46.0895 17.3422 45.4915 17.4482 44.8355 17.4482H41.5235V8.77224H44.8355C45.4915 8.77224 46.0895 8.88024 46.6295 9.09624C47.1695 9.30824 47.6315 9.60624 48.0155 9.99024C48.3995 10.3702 48.6975 10.8262 48.9095 11.3582C49.1215 11.8902 49.2275 12.4742 49.2275 13.1102ZM47.5775 13.1102C47.5775 12.6342 47.5135 12.2082 47.3855 11.8322C47.2575 11.4522 47.0755 11.1322 46.8395 10.8722C46.6035 10.6082 46.3155 10.4062 45.9755 10.2662C45.6395 10.1262 45.2595 10.0562 44.8355 10.0562H43.1495V16.1642H44.8355C45.2595 16.1642 45.6395 16.0942 45.9755 15.9542C46.3155 15.8142 46.6035 15.6142 46.8395 15.3542C47.0755 15.0902 47.2575 14.7702 47.3855 14.3942C47.5135 14.0142 47.5775 13.5862 47.5775 13.1102ZM58.1923 13.1102C58.1923 13.7462 58.0863 14.3302 57.8743 14.8622C57.6623 15.3942 57.3643 15.8522 56.9803 16.2362C56.5963 16.6202 56.1343 16.9182 55.5943 17.1302C55.0543 17.3422 54.4563 17.4482 53.8003 17.4482H50.4883V8.77224H53.8003C54.4563 8.77224 55.0543 8.88024 55.5943 9.09624C56.1343 9.30824 56.5963 9.60624 56.9803 9.99024C57.3643 10.3702 57.6623 10.8262 57.8743 11.3582C58.0863 11.8902 58.1923 12.4742 58.1923 13.1102ZM56.5423 13.1102C56.5423 12.6342 56.4783 12.2082 56.3503 11.8322C56.2223 11.4522 56.0403 11.1322 55.8043 10.8722C55.5683 10.6082 55.2803 10.4062 54.9403 10.2662C54.6043 10.1262 54.2243 10.0562 53.8003 10.0562H52.1143V16.1642H53.8003C54.2243 16.1642 54.6043 16.0942 54.9403 15.9542C55.2803 15.8142 55.5683 15.6142 55.8043 15.3542C56.0403 15.0902 56.2223 14.7702 56.3503 14.3942C56.4783 14.0142 56.5423 13.5862 56.5423 13.1102ZM63.4415 14.3942V17.4482H61.8275V8.77224H64.6535C65.2335 8.77224 65.7355 8.84024 66.1595 8.97624C66.5835 9.11224 66.9335 9.30224 67.2095 9.54624C67.4855 9.79024 67.6895 10.0822 67.8215 10.4222C67.9535 10.7622 68.0195 11.1342 68.0195 11.5382C68.0195 11.9582 67.9495 12.3442 67.8095 12.6962C67.6695 13.0442 67.4595 13.3442 67.1795 13.5962C66.8995 13.8482 66.5495 14.0442 66.1295 14.1842C65.7095 14.3242 65.2175 14.3942 64.6535 14.3942H63.4415ZM63.4415 13.1342H64.6535C64.9495 13.1342 65.2075 13.0982 65.4275 13.0262C65.6475 12.9502 65.8295 12.8442 65.9735 12.7082C66.1175 12.5682 66.2255 12.4002 66.2975 12.2042C66.3695 12.0042 66.4055 11.7822 66.4055 11.5382C66.4055 11.3062 66.3695 11.0962 66.2975 10.9082C66.2255 10.7202 66.1175 10.5602 65.9735 10.4282C65.8295 10.2962 65.6475 10.1962 65.4275 10.1282C65.2075 10.0562 64.9495 10.0202 64.6535 10.0202H63.4415V13.1342ZM75.9737 17.4482H74.7257C74.5857 17.4482 74.4697 17.4142 74.3777 17.3462C74.2897 17.2742 74.2257 17.1862 74.1857 17.0822L73.5377 15.3122H69.9437L69.2957 17.0822C69.2637 17.1742 69.1997 17.2582 69.1037 17.3342C69.0117 17.4102 68.8977 17.4482 68.7617 17.4482H67.5077L70.9157 8.77224H72.5657L75.9737 17.4482ZM70.3577 14.1722H73.1237L72.0677 11.2862C72.0197 11.1582 71.9657 11.0082 71.9057 10.8362C71.8497 10.6602 71.7937 10.4702 71.7377 10.2662C71.6817 10.4702 71.6257 10.6602 71.5697 10.8362C71.5177 11.0122 71.4657 11.1662 71.4137 11.2982L70.3577 14.1722ZM82.1023 8.77224V10.0982H79.4923V17.4482H77.8783V10.0982H75.2563V8.77224H82.1023ZM84.943 17.4482H83.323V8.77224H84.943V17.4482ZM92.3705 8.77224V10.0562H88.5245V12.4622H91.5545V13.7042H88.5245V16.1582H92.3705V17.4482H86.8985V8.77224H92.3705ZM94.6116 8.77224C94.6836 8.77224 94.7436 8.77624 94.7916 8.78424C94.8396 8.78824 94.8816 8.80024 94.9176 8.82024C94.9576 8.83624 94.9956 8.86224 95.0316 8.89824C95.0676 8.93024 95.1076 8.97424 95.1516 9.03024L99.7056 14.8322C99.6896 14.6922 99.6776 14.5562 99.6696 14.4242C99.6656 14.2882 99.6636 14.1622 99.6636 14.0462V8.77224H101.086V17.4482H100.252C100.124 17.4482 100.018 17.4282 99.9336 17.3882C99.8496 17.3482 99.7676 17.2762 99.6876 17.1722L95.1516 11.3942C95.1636 11.5222 95.1716 11.6502 95.1756 11.7782C95.1836 11.9022 95.1876 12.0162 95.1876 12.1202V17.4482H93.7656V8.77224H94.6116ZM108.95 8.77224V10.0982H106.34V17.4482H104.726V10.0982H102.104V8.77224H108.95Z" fill="white"/>
<path fill-rule="evenodd" clip-rule="evenodd" d="M16.5639 1.44824C20.1909 1.44824 22.6279 3.99424 22.6279 7.78324V16.6132C22.6279 20.4022 20.1909 22.9482 16.5639 22.9482H7.19193C3.56493 22.9482 1.12793 20.4022 1.12793 16.6132V7.78324C1.12793 3.99424 3.56493 1.44824 7.19193 1.44824H16.5639ZM16.5639 2.94824H7.19193C4.41993 2.94824 2.62793 4.84524 2.62793 7.78324V16.6132C2.62793 19.5512 4.41993 21.4482 7.19193 21.4482H16.5639C19.3369 21.4482 21.1279 19.5512 21.1279 16.6132V7.78324C21.1279 4.84524 19.3369 2.94824 16.5639 2.94824ZM11.8779 7.77554C12.2919 7.77554 12.6279 8.11154 12.6279 8.52554V11.4382L15.5444 11.4384C15.9584 11.4384 16.2944 11.7744 16.2944 12.1884C16.2944 12.6024 15.9584 12.9384 15.5444 12.9384L12.6279 12.9382V15.8525C12.6279 16.2665 12.2919 16.6025 11.8779 16.6025C11.4639 16.6025 11.1279 16.2665 11.1279 15.8525V12.9382L8.21143 12.9384C7.79643 12.9384 7.46143 12.6024 7.46143 12.1884C7.46143 11.7744 7.79643 11.4384 8.21143 11.4384L11.1279 11.4382V8.52554C11.1279 8.11154 11.4639 7.77554 11.8779 7.77554Z" fill="white"/>
</svg>
