<svg width="60" height="54" viewBox="0 0 60 54" fill="none" xmlns="http://www.w3.org/2000/svg">
<path d="M45.4637 45.5178H40.6481C39.4645 45.5178 38.5078 44.5611 38.5078 43.3776C38.5078 42.194 39.4645 41.2373 40.6481 41.2373H45.4637C46.6451 41.2373 47.6039 40.2785 47.6039 39.097V23.0451C47.6039 21.8636 48.5606 20.9048 49.7442 20.9048C50.9278 20.9048 51.8845 21.8636 51.8845 23.0451V39.097C51.8845 42.637 49.0037 45.5178 45.4637 45.5178Z" fill="url(#paint0_linear_159_48412)"/>
<path d="M55.6302 0.572144H43.8587C41.7934 0.572144 40.1133 2.25225 40.1133 4.31761V14.4839C40.1133 19.7939 44.4345 24.1151 49.7445 24.1151C55.0545 24.1151 59.3757 19.7939 59.3757 14.4839V4.31761C59.3757 2.25225 57.6956 0.572144 55.6302 0.572144ZM53.4899 12.8787H51.3497V15.0189C51.3497 15.905 50.6305 16.6241 49.7445 16.6241C48.8584 16.6241 48.1393 15.905 48.1393 15.0189V12.8787H45.999C45.1129 12.8787 44.3938 12.1595 44.3938 11.2735C44.3938 10.3874 45.1129 9.66827 45.999 9.66827H48.1393V7.52801C48.1393 6.64194 48.8584 5.92281 49.7445 5.92281C50.6305 5.92281 51.3497 6.64194 51.3497 7.52801V9.66827H53.4899C54.376 9.66827 55.0951 10.3874 55.0951 11.2735C55.0951 12.1595 54.376 12.8787 53.4899 12.8787Z" fill="url(#paint1_linear_159_48412)"/>
<path d="M27.14 22.5098C27.14 27.9338 22.743 32.3308 17.319 32.3308C11.8951 32.3308 7.49805 27.9338 7.49805 22.5098C7.49805 17.0859 11.8951 12.6888 17.319 12.6888C22.743 12.6888 27.14 17.0859 27.14 22.5098Z" fill="url(#paint2_linear_159_48412)"/>
<path fill-rule="evenodd" clip-rule="evenodd" d="M17.5546 14.6989C16.2647 16.3609 15.4968 18.4482 15.4968 20.7149C15.4968 24.5377 17.681 27.8504 20.8695 29.4731C23.4005 28.1799 25.1335 25.5473 25.1335 22.5099C25.1335 18.2729 21.7614 14.8234 17.5546 14.6989ZM21.7773 11.5515C26.0996 13.3118 29.1464 17.555 29.1464 22.5099C29.1464 25.5952 27.965 28.4047 26.0299 30.5105C31.1215 30.1457 35.1388 25.8994 35.1388 20.7149C35.1388 15.2909 30.7418 10.8939 25.3178 10.8939C24.0696 10.8939 22.8757 11.1268 21.7773 11.5515Z" fill="url(#paint3_linear_159_48412)"/>
<path d="M32.6498 53.7336H1.61594C0.729871 53.7336 0.0107422 53.0144 0.0107422 52.1284V44.6374C0.0107422 40.2135 3.61281 36.6115 8.03674 36.6115H26.229C30.6529 36.6115 34.255 40.2135 34.255 44.6374V52.1284C34.255 53.0144 33.5359 53.7336 32.6498 53.7336Z" fill="url(#paint4_linear_159_48412)"/>
<path fill-rule="evenodd" clip-rule="evenodd" d="M9.21432 38.6179C8.45072 39.8458 8.00928 41.2938 8.00928 42.8425V50.3334C8.00928 50.9296 8.33476 51.4501 8.8176 51.727H32.2486V44.6374C32.2486 41.3216 29.5449 38.6179 26.2291 38.6179H9.21432ZM28.2847 34.8165C32.8342 35.7675 36.2616 39.8096 36.2616 44.6374V51.9386H40.6483C41.5344 51.9386 42.2535 51.2195 42.2535 50.3334V42.8425C42.2535 38.4186 38.6515 34.8165 34.2275 34.8165H28.2847Z" fill="url(#paint5_linear_159_48412)"/>
<defs>
<linearGradient id="paint0_linear_159_48412" x1="45.1962" y1="45.5178" x2="45.1962" y2="20.9048" gradientUnits="userSpaceOnUse">
<stop stop-color="#FF81FF"/>
<stop offset="1" stop-color="#A93AFF"/>
</linearGradient>
<linearGradient id="paint1_linear_159_48412" x1="49.7446" y1="24.1151" x2="49.7446" y2="0.572144" gradientUnits="userSpaceOnUse">
<stop stop-color="#FF81FF"/>
<stop offset="1" stop-color="#A93AFF"/>
</linearGradient>
<linearGradient id="paint2_linear_159_48412" x1="17.3192" y1="32.3308" x2="17.3192" y2="12.6888" gradientUnits="userSpaceOnUse">
<stop stop-color="#FF81FF"/>
<stop offset="1" stop-color="#A93AFF"/>
</linearGradient>
<linearGradient id="paint3_linear_159_48412" x1="25.3179" y1="30.5105" x2="25.3179" y2="10.8939" gradientUnits="userSpaceOnUse">
<stop stop-color="#FF81FF"/>
<stop offset="1" stop-color="#A93AFF"/>
</linearGradient>
<linearGradient id="paint4_linear_159_48412" x1="17.1331" y1="53.7336" x2="17.1331" y2="36.6115" gradientUnits="userSpaceOnUse">
<stop stop-color="#FF81FF"/>
<stop offset="1" stop-color="#A93AFF"/>
</linearGradient>
<linearGradient id="paint5_linear_159_48412" x1="25.1316" y1="51.9386" x2="25.1316" y2="34.8165" gradientUnits="userSpaceOnUse">
<stop stop-color="#FF81FF"/>
<stop offset="1" stop-color="#A93AFF"/>
</linearGradient>
</defs>
</svg>
