<svg width="49" height="42" viewBox="0 0 49 42" fill="none" xmlns="http://www.w3.org/2000/svg">
<g clip-path="url(#clip0_354_11226)">
<path d="M44.6325 8.64975H37.3332C36.8635 8.64975 36.477 8.27535 36.477 7.80975V0.796948C36.477 0.331348 36.0906 -0.0478516 35.616 -0.0478516H13.3022C12.8276 -0.0478516 12.446 0.331348 12.446 0.796948V7.80975C12.446 8.27535 12.0595 8.64975 11.585 8.64975H4.29055C1.92268 8.64975 0 10.5409 0 12.8641V36.7249C0 39.0481 1.91778 40.9345 4.29055 40.9345H6.36V41.1505C6.36 41.6353 7.1232 42.0337 8.07231 42.0337H15.0096C15.9587 42.0337 16.7219 41.6353 16.7219 41.1505V40.9345H32.8861V41.1505C32.8861 41.6353 33.6591 42.0337 34.6033 42.0337H41.5406C42.4848 42.0337 43.2578 41.6353 43.2578 41.1505V40.9345H44.6325C47.0004 40.9345 48.9231 39.0529 48.9231 36.7249V12.8593C48.9231 10.5409 47.0004 8.64975 44.6325 8.64975ZM19.7405 4.86735C19.7405 4.40175 20.127 4.02255 20.5966 4.02255H28.3216C28.801 4.02255 29.1826 4.40175 29.1826 4.86735V7.80975C29.1826 8.27535 28.801 8.64975 28.3216 8.64975H26.5261V8.62575C26.5261 8.16495 26.1396 7.78575 25.6699 7.78575H23.2336C22.759 7.78575 22.3774 8.16495 22.3774 8.62575V8.64975H20.5966C20.127 8.64975 19.7405 8.27535 19.7405 7.80975V4.86735ZM31.0026 26.7409C31.0026 26.9665 30.8166 27.1489 30.5818 27.1489H27.1034C26.8686 27.1489 26.6826 27.3313 26.6826 27.5569V30.9793C26.6826 31.2049 26.4967 31.3873 26.2668 31.3873H23.351C23.1162 31.3873 22.9302 31.2049 22.9302 30.9793V27.5569C22.9302 27.3313 22.7443 27.1489 22.5144 27.1489H19.0262C18.7962 27.1489 18.6152 26.9665 18.6152 26.7409V23.8753C18.6152 23.6545 18.8011 23.4673 19.0262 23.4673H22.5144C22.7443 23.4673 22.9302 23.2897 22.9302 23.0593V19.6417C22.9302 19.4161 23.1162 19.2337 23.351 19.2337H26.2668C26.4967 19.2337 26.6826 19.4161 26.6826 19.6417V23.0593C26.6826 23.2897 26.8686 23.4673 27.1034 23.4673H30.5818C30.8166 23.4673 31.0026 23.6545 31.0026 23.8753V26.7409Z" fill="url(#paint0_linear_354_11226)"/>
</g>
<defs>
<linearGradient id="paint0_linear_354_11226" x1="24.4615" y1="42.0337" x2="24.4615" y2="-0.0478516" gradientUnits="userSpaceOnUse">
<stop stop-color="#FD3A84"/>
<stop offset="1" stop-color="#FFA68D"/>
</linearGradient>
<clipPath id="clip0_354_11226">
<rect width="49" height="42" fill="white"/>
</clipPath>
</defs>
</svg>
