<svg width="136" height="37" viewBox="0 0 136 37" fill="none" xmlns="http://www.w3.org/2000/svg">
<path fill-rule="evenodd" clip-rule="evenodd" d="M12.7825 4.79975C12.7825 2.35387 14.7653 0.371094 17.2112 0.371094H19.9645C22.4103 0.371094 24.3931 2.35387 24.3931 4.79975V12.5439H25.7685C25.3165 15.9059 23.7831 19.3803 20.0634 21.2949C17.3423 22.6955 14.4067 23.7228 11.6694 24.4597H4.88569C2.4398 24.4597 0.457031 22.4769 0.457031 20.031V16.9726C0.457031 14.5267 2.43981 12.5439 4.88569 12.5439H12.7825V4.79975ZM12.7825 26.1223V32.204C12.7825 34.6498 14.7653 36.6326 17.2112 36.6326H19.9645C22.4103 36.6326 24.3931 34.6499 24.3931 32.204V24.4597H32.2899C34.7358 24.4597 36.7186 22.4769 36.7186 20.031V16.9726C36.7186 14.5267 34.7358 12.5439 32.2899 12.5439H27.9193C28.0449 17.2129 25.9903 22.3951 21.9069 24.2442C19.5389 25.3165 16.1676 25.871 12.7825 26.1223Z" fill="url(#paint0_linear_319_7133)"/>
<path d="M56.1134 20.9829C56.2309 21.204 56.3379 21.4353 56.4346 21.6771C56.5382 21.9119 56.6384 22.1502 56.7351 22.392C56.8318 22.1433 56.9319 21.8981 57.0355 21.6564C57.1391 21.4146 57.2496 21.1832 57.3671 20.9622L61.8013 12.6635C61.8566 12.5599 61.9119 12.477 61.9671 12.4148C62.0293 12.3527 62.0949 12.3078 62.164 12.2801C62.2399 12.2525 62.3228 12.2352 62.4126 12.2283C62.5024 12.2214 62.6095 12.218 62.7338 12.218H64.837V27.1992H62.3815V17.5225C62.3815 17.343 62.385 17.1461 62.3919 16.932C62.4057 16.7179 62.423 16.5003 62.4437 16.2793L57.9162 24.7749C57.8126 24.9683 57.6779 25.1202 57.5121 25.2307C57.3463 25.3343 57.1529 25.3861 56.9319 25.3861H56.5486C56.3276 25.3861 56.1342 25.3343 55.9684 25.2307C55.8026 25.1202 55.6679 24.9683 55.5643 24.7749L50.9746 16.2482C51.0023 16.4761 51.0195 16.7006 51.0264 16.9216C51.0403 17.1357 51.0472 17.336 51.0472 17.5225V27.1992H48.5917V12.218H50.6949C50.8192 12.218 50.9263 12.2214 51.0161 12.2283C51.1059 12.2352 51.1853 12.2525 51.2544 12.2801C51.3304 12.3078 51.3994 12.3527 51.4616 12.4148C51.5237 12.477 51.5825 12.5599 51.6377 12.6635L56.1134 20.9829ZM72.1035 16.4036C72.7735 16.4036 73.3882 16.5107 73.9477 16.7248C74.5141 16.9389 75.001 17.2532 75.4085 17.6676C75.816 18.0751 76.1338 18.5793 76.3617 19.1802C76.5896 19.7742 76.7036 20.4545 76.7036 21.2212C76.7036 21.4146 76.6932 21.5769 76.6725 21.7082C76.6587 21.8325 76.6276 21.9326 76.5793 22.0086C76.5378 22.0777 76.4791 22.1295 76.4031 22.164C76.3272 22.1917 76.2305 22.2055 76.113 22.2055H69.5445C69.6205 23.2968 69.914 24.098 70.4251 24.6091C70.9363 25.1202 71.6131 25.3758 72.4558 25.3758C72.8702 25.3758 73.2259 25.3274 73.5229 25.2307C73.8268 25.134 74.0893 25.027 74.3103 24.9096C74.5383 24.7921 74.7351 24.6851 74.9009 24.5884C75.0735 24.4917 75.2393 24.4433 75.3982 24.4433C75.5018 24.4433 75.5916 24.4641 75.6675 24.5055C75.7435 24.5469 75.8091 24.6056 75.8644 24.6816L76.6103 25.6141C76.3272 25.9456 76.0094 26.2253 75.6572 26.4533C75.3049 26.6743 74.9354 26.8539 74.5486 26.992C74.1687 27.1232 73.7785 27.2165 73.3779 27.2717C72.9842 27.327 72.6008 27.3546 72.2279 27.3546C71.4888 27.3546 70.8016 27.2338 70.1661 26.992C69.5307 26.7434 68.9781 26.3807 68.5085 25.9042C68.0388 25.4207 67.6693 24.8267 67.3999 24.1222C67.1305 23.4107 66.9958 22.5888 66.9958 21.6564C66.9958 20.9311 67.1132 20.2508 67.3481 19.6153C67.5829 18.973 67.9179 18.417 68.353 17.9473C68.7951 17.4707 69.3304 17.0943 69.9589 16.818C70.5944 16.5417 71.3092 16.4036 72.1035 16.4036ZM72.1553 18.2374C71.4094 18.2374 70.8257 18.4481 70.4044 18.8694C69.9831 19.2907 69.7137 19.8882 69.5963 20.6618H74.4036C74.4036 20.3302 74.3587 20.0194 74.2689 19.7293C74.1791 19.4323 74.0409 19.1733 73.8545 18.9523C73.668 18.7313 73.4331 18.5586 73.1499 18.4343C72.8668 18.303 72.5352 18.2374 72.1553 18.2374ZM86.2597 27.1992C85.9281 27.1992 85.7106 27.0438 85.607 26.733L85.3998 25.7073C85.1787 25.956 84.9473 26.1804 84.7056 26.3807C84.4639 26.581 84.2014 26.7537 83.9182 26.8988C83.6419 27.0438 83.3415 27.1543 83.0168 27.2303C82.6991 27.3132 82.3538 27.3546 81.9808 27.3546C81.4006 27.3546 80.8688 27.2338 80.3853 26.992C79.9018 26.7503 79.4839 26.4015 79.1317 25.9456C78.7863 25.4828 78.5169 24.913 78.3235 24.2361C78.1371 23.5592 78.0438 22.7857 78.0438 21.9154C78.0438 21.128 78.1509 20.3958 78.365 19.719C78.5791 19.0421 78.8865 18.455 79.2871 17.9577C79.6877 17.4604 80.1677 17.0736 80.7272 16.7973C81.2866 16.5141 81.9152 16.3725 82.6128 16.3725C83.2068 16.3725 83.7144 16.4692 84.1358 16.6626C84.5571 16.8491 84.9335 17.1012 85.2651 17.4189V11.8036H87.8241V27.1992H86.2597ZM82.8511 25.324C83.3829 25.324 83.8353 25.2135 84.2083 24.9924C84.5813 24.7714 84.9335 24.4571 85.2651 24.0496V19.2838C84.975 18.9316 84.6573 18.6829 84.3119 18.5379C83.9735 18.3928 83.6074 18.3203 83.2137 18.3203C82.8269 18.3203 82.4746 18.3928 82.1569 18.5379C81.8461 18.6829 81.5802 18.9039 81.3592 19.2009C81.1451 19.491 80.9793 19.864 80.8619 20.3199C80.7444 20.7688 80.6857 21.3007 80.6857 21.9154C80.6857 22.537 80.7341 23.0654 80.8308 23.5005C80.9344 23.9288 81.0794 24.281 81.2659 24.5573C81.4524 24.8267 81.6803 25.0235 81.9497 25.1478C82.2191 25.2653 82.5195 25.324 82.8511 25.324ZM93.3216 16.5694V27.1992H90.7626V16.5694H93.3216ZM93.705 13.4716C93.705 13.6926 93.6601 13.8998 93.5703 14.0932C93.4805 14.2866 93.3596 14.4558 93.2077 14.6009C93.0626 14.7459 92.8899 14.8633 92.6896 14.9531C92.4893 15.036 92.2752 15.0775 92.0473 15.0775C91.8263 15.0775 91.6156 15.036 91.4153 14.9531C91.2219 14.8633 91.0527 14.7459 90.9076 14.6009C90.7626 14.4558 90.6452 14.2866 90.5554 14.0932C90.4725 13.8998 90.4311 13.6926 90.4311 13.4716C90.4311 13.2437 90.4725 13.0295 90.5554 12.8292C90.6452 12.6289 90.7626 12.4563 90.9076 12.3112C91.0527 12.1662 91.2219 12.0522 91.4153 11.9693C91.6156 11.8795 91.8263 11.8346 92.0473 11.8346C92.2752 11.8346 92.4893 11.8795 92.6896 11.9693C92.8899 12.0522 93.0626 12.1662 93.2077 12.3112C93.3596 12.4563 93.4805 12.6289 93.5703 12.8292C93.6601 13.0295 93.705 13.2437 93.705 13.4716ZM99.2475 21.9257V27.1992H96.4605V12.218H101.34C102.342 12.218 103.209 12.3354 103.941 12.5702C104.673 12.8051 105.277 13.1331 105.754 13.5545C106.23 13.9758 106.583 14.48 106.811 15.0671C107.039 15.6542 107.153 16.2965 107.153 16.9941C107.153 17.7194 107.032 18.3859 106.79 18.9937C106.548 19.5946 106.186 20.1127 105.702 20.5478C105.219 20.9829 104.614 21.3214 103.889 21.5631C103.164 21.8049 102.314 21.9257 101.34 21.9257H99.2475ZM99.2475 19.75H101.34C101.851 19.75 102.297 19.6879 102.677 19.5635C103.057 19.4323 103.371 19.2493 103.62 19.0144C103.868 18.7727 104.055 18.4826 104.179 18.1442C104.303 17.7988 104.366 17.4155 104.366 16.9941C104.366 16.5935 104.303 16.2309 104.179 15.9063C104.055 15.5817 103.868 15.3054 103.62 15.0775C103.371 14.8495 103.057 14.6769 102.677 14.5594C102.297 14.4351 101.851 14.3729 101.34 14.3729H99.2475V19.75ZM111.898 11.8036V27.1992H109.339V11.8036H111.898ZM117.14 16.5694V23.3244C117.14 23.9737 117.288 24.4779 117.585 24.837C117.889 25.1893 118.342 25.3654 118.942 25.3654C119.384 25.3654 119.799 25.2687 120.186 25.0753C120.572 24.875 120.939 24.6022 121.284 24.2568V16.5694H123.843V27.1992H122.279C121.947 27.1992 121.729 27.0438 121.626 26.733L121.45 25.8834C121.229 26.1045 121.001 26.3082 120.766 26.4947C120.531 26.6743 120.279 26.8297 120.01 26.9609C119.747 27.0853 119.46 27.182 119.15 27.251C118.846 27.327 118.518 27.365 118.165 27.365C117.585 27.365 117.071 27.2683 116.622 27.0749C116.18 26.8746 115.807 26.5949 115.503 26.2357C115.199 25.8765 114.967 25.4518 114.809 24.9614C114.657 24.4641 114.581 23.9184 114.581 23.3244V16.5694H117.14ZM132.885 18.6415C132.816 18.752 132.743 18.8314 132.667 18.8798C132.591 18.9212 132.494 18.9419 132.377 18.9419C132.253 18.9419 132.118 18.9074 131.973 18.8383C131.835 18.7692 131.673 18.6933 131.486 18.6104C131.3 18.5206 131.085 18.4412 130.844 18.3721C130.609 18.303 130.329 18.2685 130.005 18.2685C129.5 18.2685 129.103 18.3755 128.813 18.5897C128.523 18.8038 128.378 19.0835 128.378 19.4289C128.378 19.6568 128.45 19.8502 128.595 20.009C128.747 20.161 128.944 20.2957 129.186 20.4131C129.435 20.5305 129.714 20.6376 130.025 20.7343C130.336 20.8241 130.654 20.9242 130.978 21.0347C131.303 21.1452 131.621 21.273 131.932 21.4181C132.242 21.5562 132.519 21.7358 132.76 21.9568C133.009 22.1709 133.206 22.4299 133.351 22.7339C133.503 23.0378 133.579 23.4038 133.579 23.8321C133.579 24.3432 133.486 24.8163 133.299 25.2514C133.113 25.6797 132.84 26.0527 132.481 26.3704C132.122 26.6812 131.676 26.9264 131.144 27.106C130.619 27.2786 130.015 27.365 129.331 27.365C128.965 27.365 128.606 27.3305 128.254 27.2614C127.908 27.1992 127.573 27.1094 127.249 26.992C126.931 26.8746 126.634 26.7365 126.358 26.5776C126.088 26.4187 125.85 26.2461 125.643 26.0596L126.233 25.0857C126.309 24.9683 126.399 24.8785 126.503 24.8163C126.606 24.7541 126.738 24.7231 126.896 24.7231C127.055 24.7231 127.204 24.768 127.342 24.8578C127.487 24.9475 127.653 25.0442 127.839 25.1478C128.026 25.2514 128.243 25.3481 128.492 25.4379C128.747 25.5277 129.069 25.5726 129.455 25.5726C129.759 25.5726 130.018 25.5381 130.232 25.469C130.453 25.393 130.633 25.2963 130.771 25.1789C130.916 25.0615 131.02 24.9268 131.082 24.7749C131.151 24.616 131.186 24.4537 131.186 24.2879C131.186 24.0393 131.11 23.8355 130.958 23.6767C130.813 23.5178 130.616 23.3797 130.367 23.2622C130.125 23.1448 129.846 23.0412 129.528 22.9514C129.217 22.8547 128.896 22.7511 128.564 22.6406C128.24 22.5301 127.919 22.4023 127.601 22.2573C127.29 22.1053 127.01 21.9154 126.762 21.6874C126.52 21.4595 126.323 21.1798 126.171 20.8482C126.026 20.5167 125.954 20.1161 125.954 19.6464C125.954 19.2113 126.04 18.7969 126.213 18.4032C126.385 18.0095 126.637 17.6676 126.969 17.3775C127.307 17.0805 127.725 16.8456 128.223 16.673C128.727 16.4934 129.307 16.4036 129.963 16.4036C130.695 16.4036 131.362 16.5245 131.963 16.7662C132.564 17.008 133.064 17.3257 133.465 17.7194L132.885 18.6415Z" fill="white"/>
<defs>
<linearGradient id="paint0_linear_319_7133" x1="0.457031" y1="1.20513" x2="36.7186" y2="36.6326" gradientUnits="userSpaceOnUse">
<stop stop-color="#B3F6FF"/>
<stop offset="1" stop-color="#0066FF"/>
<stop offset="1" stop-color="#7EB2FF"/>
</linearGradient>
</defs>
</svg>
