<svg width="25" height="25" viewBox="0 0 25 25" fill="none" xmlns="http://www.w3.org/2000/svg">
<path fill-rule="evenodd" clip-rule="evenodd" d="M16.1094 1.64062C16.5234 1.64062 16.8594 1.97662 16.8594 2.39062L16.8599 3.23844C18.32 3.33854 19.5326 3.83867 20.3909 4.69872C21.3279 5.63972 21.8209 6.99272 21.816 8.61573V17.7387C21.816 21.0707 19.6999 23.1407 16.2949 23.1407H7.83692C4.43192 23.1407 2.31592 21.0417 2.31592 17.6627V8.61373C2.31592 5.47092 4.20297 3.45356 7.2806 3.23878L7.28122 2.39062C7.28122 1.97662 7.61722 1.64062 8.03122 1.64062C8.44522 1.64062 8.78122 1.97662 8.78122 2.39062L8.78092 3.21962H15.3589L15.3594 2.39062C15.3594 1.97662 15.6954 1.64062 16.1094 1.64062ZM20.3159 10.5446H3.81592V17.6627C3.81592 20.2287 5.24392 21.6407 7.83692 21.6407H16.2949C18.8879 21.6407 20.316 20.2547 20.316 17.7387L20.3159 10.5446ZM16.5171 16.8369C16.9311 16.8369 17.2671 17.1729 17.2671 17.5869C17.2671 18.0009 16.9311 18.3369 16.5171 18.3369C16.1031 18.3369 15.7631 18.0009 15.7631 17.5869C15.7631 17.1729 16.0941 16.8369 16.5081 16.8369H16.5171ZM12.0796 16.8369C12.4936 16.8369 12.8296 17.1729 12.8296 17.5869C12.8296 18.0009 12.4936 18.3369 12.0796 18.3369C11.6656 18.3369 11.3256 18.0009 11.3256 17.5869C11.3256 17.1729 11.6566 16.8369 12.0706 16.8369H12.0796ZM7.63282 16.8369C8.04682 16.8369 8.38282 17.1729 8.38282 17.5869C8.38282 18.0009 8.04682 18.3369 7.63282 18.3369C7.21882 18.3369 6.87782 18.0009 6.87782 17.5869C6.87782 17.1729 7.20982 16.8369 7.62382 16.8369H7.63282ZM16.5171 12.9502C16.9311 12.9502 17.2671 13.2862 17.2671 13.7002C17.2671 14.1142 16.9311 14.4502 16.5171 14.4502C16.1031 14.4502 15.7631 14.1142 15.7631 13.7002C15.7631 13.2862 16.0941 12.9502 16.5081 12.9502H16.5171ZM12.0796 12.9502C12.4936 12.9502 12.8296 13.2862 12.8296 13.7002C12.8296 14.1142 12.4936 14.4502 12.0796 14.4502C11.6656 14.4502 11.3256 14.1142 11.3256 13.7002C11.3256 13.2862 11.6566 12.9502 12.0706 12.9502H12.0796ZM7.63282 12.9502C8.04682 12.9502 8.38282 13.2862 8.38282 13.7002C8.38282 14.1142 8.04682 14.4502 7.63282 14.4502C7.21882 14.4502 6.87782 14.1142 6.87782 13.7002C6.87782 13.2862 7.20982 12.9502 7.62382 12.9502H7.63282ZM15.3589 4.71962H8.78092L8.78122 5.68162C8.78122 6.09562 8.44522 6.43162 8.03122 6.43162C7.61722 6.43162 7.28122 6.09562 7.28122 5.68162L7.28069 4.74233C5.04046 4.93052 3.81592 6.28848 3.81592 8.61373V9.04462H20.3159L20.316 8.61373C20.3199 7.37873 19.9879 6.41873 19.3289 5.75873C18.7504 5.17853 17.9048 4.83203 16.8603 4.74281L16.8594 5.68162C16.8594 6.09562 16.5234 6.43162 16.1094 6.43162C15.6954 6.43162 15.3594 6.09562 15.3594 5.68162L15.3589 4.71962Z" fill="white"/>
</svg>
