<svg width="25" height="25" viewBox="0 0 25 25" fill="none" xmlns="http://www.w3.org/2000/svg">
<g opacity="0.5">
<path fill-rule="evenodd" clip-rule="evenodd" d="M12.9453 15.6463L18.8636 21.7057C19.4573 22.3183 19.8436 22.3246 20.4482 21.7057L21.6356 20.4897C22.2173 19.8943 22.2567 19.5034 21.6356 18.8674L15.3699 12.4531L21.6362 6.03885C22.223 5.43599 22.2345 5.02913 21.6362 4.41599L20.4487 3.20056C19.8327 2.5697 19.4522 2.59885 18.8642 3.20056L12.9453 9.25999L7.02703 3.20113C6.43903 2.59942 6.05846 2.57027 5.44246 3.20113L4.25503 4.41656C3.65617 5.0297 3.66703 5.43656 4.25503 6.03942L10.5207 12.4531L4.25503 18.8674C3.63388 19.5034 3.66703 19.8943 4.25503 20.4897L5.44188 21.7057C6.04131 22.3246 6.4276 22.3183 7.02646 21.7057L12.9453 15.6463Z" fill="#FF1111"/>
</g>
</svg>
