<svg width="25" height="25" viewBox="0 0 25 25" fill="none" xmlns="http://www.w3.org/2000/svg">
<path fill-rule="evenodd" clip-rule="evenodd" d="M7.16616 13.9221C11.34 13.9221 11.5257 15.3377 11.5257 18.2817C11.5257 19.7567 11.5257 20.8061 10.9061 21.5744C10.1932 22.4596 8.89561 22.6412 7.16616 22.6412C5.43671 22.6412 4.13911 22.4596 3.42621 21.5744C2.80664 20.8061 2.80664 19.7577 2.80664 18.3073L3.57597 18.2817H2.80664C2.80664 15.3377 2.99231 13.9221 7.16616 13.9221ZM18.4496 13.9221C22.6235 13.9221 22.8091 15.3377 22.8091 18.2817C22.8091 19.7567 22.8091 20.8061 22.1896 21.5744C21.4767 22.4596 20.1791 22.6412 18.4496 22.6412C16.7202 22.6412 15.4226 22.4596 14.7097 21.5744C14.0901 20.8061 14.0901 19.7577 14.0901 18.3073L14.8594 18.2817H14.0901C14.0901 15.3377 14.2758 13.9221 18.4496 13.9221ZM7.37763 15.4612L7.16616 15.4608C4.48995 15.4608 4.35271 15.6528 4.34568 17.8991L4.34611 18.7742C4.35097 19.6676 4.38501 20.313 4.62328 20.6102C4.89511 20.9466 5.70239 21.1025 7.16616 21.1025C8.62993 21.1025 9.43721 20.9456 9.70904 20.6091C9.98703 20.2634 9.98703 19.4428 9.98703 18.3063C9.98703 15.7416 9.98703 15.4733 7.37763 15.4612ZM18.6611 15.4612L18.4496 15.4608C15.7734 15.4608 15.6362 15.6528 15.6291 17.8991L15.6296 18.7742C15.6344 19.6676 15.6685 20.313 15.9067 20.6102C16.1786 20.9466 16.9859 21.1025 18.4496 21.1025C19.9134 21.1025 20.7207 20.9456 20.9925 20.6091C21.2705 20.2634 21.2705 19.4428 21.2705 18.3063C21.2705 15.7416 21.2705 15.4733 18.6611 15.4612ZM7.16616 2.63867C11.34 2.63867 11.5257 4.05423 11.5257 6.99819C11.5257 8.47325 11.5257 9.52261 10.9061 10.2909C10.1932 11.1762 8.89561 11.3577 7.16616 11.3577C5.43671 11.3577 4.13911 11.1762 3.42621 10.2909C2.80664 9.52261 2.80664 8.47427 2.80664 7.02384L3.57597 6.99819H2.80664C2.80664 4.05423 2.99231 2.63867 7.16616 2.63867ZM18.4496 2.63867C22.6235 2.63867 22.8091 4.05423 22.8091 6.99819C22.8091 8.47325 22.8091 9.52261 22.1896 10.2909C21.4767 11.1762 20.1791 11.3577 18.4496 11.3577C16.7202 11.3577 15.4226 11.1762 14.7097 10.2909C14.0901 9.52261 14.0901 8.47427 14.0901 7.02384L14.8594 6.99819H14.0901C14.0901 4.05423 14.2758 2.63867 18.4496 2.63867ZM7.37763 4.17778L7.16616 4.17733C4.48995 4.17733 4.35271 4.36936 4.34568 6.61563L4.34611 7.49075C4.35097 8.38415 4.38501 9.02951 4.62328 9.32669C4.89511 9.66314 5.70239 9.81906 7.16616 9.81906C8.62993 9.81906 9.43721 9.66211 9.70904 9.32566C9.98703 8.97998 9.98703 8.15936 9.98703 7.02281C9.98703 4.45818 9.98703 4.18986 7.37763 4.17778ZM18.6611 4.17778L18.4496 4.17733C15.7734 4.17733 15.6362 4.36936 15.6291 6.61563L15.6296 7.49075C15.6344 8.38415 15.6685 9.02951 15.9067 9.32669C16.1786 9.66314 16.9859 9.81906 18.4496 9.81906C19.9134 9.81906 20.7207 9.66211 20.9925 9.32566C21.2705 8.97998 21.2705 8.15936 21.2705 7.02281C21.2705 4.45818 21.2705 4.18986 18.6611 4.17778Z" fill="white"/>
</svg>
