<svg width="25" height="25" viewBox="0 0 25 25" fill="none" xmlns="http://www.w3.org/2000/svg">
<path fill-rule="evenodd" clip-rule="evenodd" d="M12.0644 1.64062C14.9374 1.64062 17.6374 2.75763 19.6654 4.78663C23.8574 8.97863 23.8574 15.7986 19.6654 19.9906C17.6104 22.0466 14.8434 23.1346 12.0404 23.1346C10.5124 23.1346 8.97436 22.8116 7.53536 22.1456C7.11136 21.9756 6.71436 21.8156 6.42936 21.8156C6.10136 21.8176 5.66036 21.9696 5.23436 22.1166C4.36036 22.4166 3.27236 22.7906 2.46736 21.9886C1.66536 21.1856 2.03536 20.1006 2.33336 19.2276C2.48036 18.7976 2.63136 18.3536 2.63136 18.0176C2.63136 17.7416 2.49836 17.3896 2.29436 16.8826C0.421355 12.8376 1.28736 7.96263 4.46436 4.78763C6.49236 2.75863 9.19136 1.64062 12.0644 1.64062ZM12.0654 3.14062C9.59236 3.14062 7.26936 4.10263 5.52436 5.84863C2.79036 8.58063 2.04636 12.7756 3.67136 16.2886C3.90536 16.8676 4.13136 17.4316 4.13136 18.0176C4.13136 18.6026 3.93036 19.1916 3.75336 19.7116C3.60736 20.1396 3.38636 20.7856 3.52836 20.9276C3.66736 21.0716 4.31736 20.8446 4.74636 20.6976C5.26136 20.5216 5.84536 20.3196 6.42436 20.3156C7.00436 20.3156 7.55136 20.5356 8.13036 20.7686C11.6774 22.4086 15.8724 21.6626 18.6054 18.9306C22.2114 15.3226 22.2114 9.45363 18.6054 5.84763C16.8594 4.10163 14.5374 3.14062 12.0654 3.14062ZM16.0123 11.8033C16.5643 11.8033 17.0123 12.2503 17.0123 12.8033C17.0123 13.3563 16.5643 13.8033 16.0123 13.8033C15.4603 13.8033 15.0083 13.3563 15.0083 12.8033C15.0083 12.2503 15.4513 11.8033 16.0033 11.8033H16.0123ZM12.0035 11.8033C12.5555 11.8033 13.0035 12.2503 13.0035 12.8033C13.0035 13.3563 12.5555 13.8033 12.0035 13.8033C11.4515 13.8033 10.9995 13.3563 10.9995 12.8033C10.9995 12.2503 11.4415 11.8033 11.9945 11.8033H12.0035ZM7.99426 11.8033C8.54626 11.8033 8.99426 12.2503 8.99426 12.8033C8.99426 13.3563 8.54626 13.8033 7.99426 13.8033C7.44226 13.8033 6.99026 13.3563 6.99026 12.8033C6.99026 12.2503 7.43326 11.8033 7.98526 11.8033H7.99426Z" fill="white"/>
</svg>
