<svg width="25" height="25" viewBox="0 0 25 25" fill="none" xmlns="http://www.w3.org/2000/svg">
<path fill-rule="evenodd" clip-rule="evenodd" d="M11.7493 2.05056C12.1633 2.05056 12.4993 2.38656 12.4993 2.80056C12.4993 3.21456 12.1633 3.55056 11.7493 3.55056H8.01032C5.42632 3.55056 3.75732 5.32056 3.75732 8.05956V16.3736C3.75732 19.1126 5.42632 20.8826 8.01032 20.8826H16.8343C19.4183 20.8826 21.0883 19.1126 21.0883 16.3736V12.3456C21.0883 11.9316 21.4243 11.5956 21.8383 11.5956C22.2523 11.5956 22.5883 11.9316 22.5883 12.3456V16.3736C22.5883 19.9676 20.2753 22.3826 16.8343 22.3826H8.01032C4.56932 22.3826 2.25732 19.9676 2.25732 16.3736V8.05956C2.25732 4.46556 4.56932 2.05056 8.01032 2.05056H11.7493ZM20.4589 2.92916L21.6759 4.14616C22.2689 4.73816 22.5949 5.52516 22.5939 6.36316C22.5939 7.20116 22.2679 7.98716 21.6759 8.57816L14.1669 16.0872C13.6159 16.6382 12.8819 16.9422 12.1019 16.9422H8.35592C8.15392 16.9422 7.95992 16.8602 7.81892 16.7152C7.67792 16.5712 7.60092 16.3762 7.60592 16.1732L7.69992 12.3942C7.71892 11.6422 8.02192 10.9352 8.55392 10.4022H8.55492L16.0279 2.92916C17.2499 1.70916 19.2369 1.70916 20.4589 2.92916ZM15.4123 5.66516L9.61492 11.4632C9.35592 11.7222 9.20892 12.0662 9.19992 12.4312L9.12493 15.4422H12.1019C12.4819 15.4422 12.8379 15.2952 13.1069 15.0262L18.9393 9.19216L15.4123 5.66516ZM17.0879 3.99016L16.4723 4.60416L19.9993 8.13216L20.6159 7.51716C20.9239 7.20916 21.0939 6.79916 21.0939 6.36316C21.0939 5.92616 20.9239 5.51516 20.6159 5.20716L19.3989 3.99016C18.7619 3.35516 17.7259 3.35516 17.0879 3.99016Z" fill="#2690CC"/>
</svg>
