<svg width="24" height="25" viewBox="0 0 24 25" fill="none" xmlns="http://www.w3.org/2000/svg">
<path fill-rule="evenodd" clip-rule="evenodd" d="M16.436 1.02881C20.063 1.02881 22.5 3.57481 22.5 7.36381V16.1938C22.5 19.9828 20.063 22.5288 16.436 22.5288H7.064C3.437 22.5288 1 19.9828 1 16.1938V7.36381C1 3.57481 3.437 1.02881 7.064 1.02881H16.436ZM16.436 2.52881H7.064C4.292 2.52881 2.5 4.42581 2.5 7.36381V16.1938C2.5 19.1318 4.292 21.0288 7.064 21.0288H16.436C19.209 21.0288 21 19.1318 21 16.1938V7.36381C21 4.42581 19.209 2.52881 16.436 2.52881ZM11.75 7.35611C12.164 7.35611 12.5 7.69211 12.5 8.10611V11.0188L15.4165 11.019C15.8305 11.019 16.1665 11.355 16.1665 11.769C16.1665 12.183 15.8305 12.519 15.4165 12.519L12.5 12.5188V15.4331C12.5 15.8471 12.164 16.1831 11.75 16.1831C11.336 16.1831 11 15.8471 11 15.4331V12.5188L8.0835 12.519C7.6685 12.519 7.3335 12.183 7.3335 11.769C7.3335 11.355 7.6685 11.019 8.0835 11.019L11 11.0188V8.10611C11 7.69211 11.336 7.35611 11.75 7.35611Z" fill="#2690CC"/>
</svg>
