<svg width="32" height="33" viewBox="0 0 32 33" fill="none" xmlns="http://www.w3.org/2000/svg">
<path d="M25.2521 12.1207C25.5179 12.1207 25.7591 12.2367 25.9497 12.4327C26.1274 12.642 26.2169 12.902 26.1909 13.1767C26.1909 13.2674 25.4803 22.2539 25.0744 26.0366C24.8203 28.3579 23.3238 29.7672 21.0792 29.8059C19.3532 29.8445 17.6662 29.8579 16.0051 29.8579C14.2415 29.8579 12.5168 29.8445 10.8427 29.8059C8.67331 29.7539 7.17558 28.3192 6.93439 26.0366C6.51684 22.2406 5.81919 13.2674 5.80622 13.1767C5.79326 12.902 5.88144 12.642 6.06038 12.4327C6.23674 12.2367 6.4909 12.1207 6.75803 12.1207H25.2521ZM18.753 3.19119C19.9317 3.19119 20.9847 4.01385 21.2894 5.18717L21.5072 6.1605C21.6836 6.95382 22.3709 7.51515 23.1619 7.51515H27.0495C27.5682 7.51515 28 7.94581 28 8.49381V9.00047C28 9.53513 27.5682 9.97913 27.0495 9.97913H4.9518C4.43181 9.97913 4 9.53513 4 9.00047V8.49381C4 7.94581 4.43181 7.51515 4.9518 7.51515H8.83942C9.62913 7.51515 10.3164 6.95382 10.4941 6.16183L10.6976 5.25251C11.014 4.01385 12.0553 3.19119 13.247 3.19119H18.753Z" fill="#FF1A1A"/>
</svg>
