<svg width="19" height="19" viewBox="0 0 19 19" fill="none" xmlns="http://www.w3.org/2000/svg">
<path fill-rule="evenodd" clip-rule="evenodd" d="M15.4397 7.04408C15.7564 7.07015 15.9926 7.34696 15.9673 7.66363C15.9627 7.71577 15.5471 12.8616 15.3078 15.02C15.1591 16.3596 14.2742 17.1747 12.9385 17.1992C11.9164 17.2169 10.9303 17.2268 9.9665 17.2268C8.92752 17.2268 7.91462 17.2153 6.91245 17.1946C5.6304 17.1693 4.74325 16.3381 4.59833 15.0254C4.3568 12.8478 3.94351 7.71501 3.93967 7.66363C3.9136 7.34696 4.14977 7.06939 4.46644 7.04408C4.77852 7.03565 5.06069 7.25494 5.086 7.57085C5.08844 7.60414 5.2574 9.7002 5.44152 11.7741L5.4785 12.1879C5.57123 13.2188 5.66523 14.2093 5.74159 14.8989C5.82363 15.645 6.22619 16.0299 6.93622 16.0445C8.85315 16.0851 10.8092 16.0874 12.9178 16.0491C13.6723 16.0345 14.0802 15.6572 14.1646 14.8935C14.4023 12.7512 14.8163 7.62299 14.8209 7.57085C14.8462 7.25494 15.1261 7.03411 15.4397 7.04408ZM11.5758 1.8916C12.2797 1.8916 12.8985 2.36623 13.0802 3.04636L13.275 4.01326C13.3379 4.33022 13.6161 4.5617 13.9381 4.56678L16.4545 4.56687C16.7719 4.56687 17.0295 4.82451 17.0295 5.14195C17.0295 5.45939 16.7719 5.71703 16.4545 5.71703L13.9606 5.71691C13.9567 5.71699 13.9529 5.71703 13.949 5.71703L13.9303 5.71626L5.97547 5.71693C5.96928 5.717 5.96309 5.71703 5.9569 5.71703L5.94509 5.71626L3.45154 5.71703C3.1341 5.71703 2.87646 5.45939 2.87646 5.14195C2.87646 4.82451 3.1341 4.56687 3.45154 4.56687L5.96732 4.5661L6.04478 4.5612C6.33331 4.52377 6.5731 4.30463 6.63165 4.01326L6.81798 3.08087C7.00737 2.36623 7.62616 1.8916 8.33006 1.8916H11.5758ZM11.5758 3.04176H8.33006C8.14603 3.04176 7.98424 3.16521 7.93747 3.34233L7.75881 4.23946C7.7361 4.35309 7.70304 4.4626 7.66073 4.56708H12.2454C12.203 4.4626 12.1699 4.35309 12.147 4.23946L11.9607 3.30706C11.9216 3.16521 11.7598 3.04176 11.5758 3.04176Z" fill="#FF1111"/>
</svg>
