<svg width="101" height="101" viewBox="0 0 101 101" fill="none" xmlns="http://www.w3.org/2000/svg">
<g clip-path="url(#clip0_147_34455)">
<path d="M96.9721 57.6188H4.80527C3.45117 57.6188 2.35352 56.5211 2.35352 55.167V41.2877C2.35352 39.9336 3.45117 38.8359 4.80527 38.8359H96.9721C98.3262 38.8359 99.4238 39.9336 99.4238 41.2877V55.167C99.4238 56.5209 98.3262 57.6188 96.9721 57.6188Z" fill="#E0D3CE"/>
<path d="M96.972 38.8359H81.6753V57.6188H96.972C98.3261 57.6188 99.4237 56.5211 99.4237 55.167V41.2877C99.4237 39.9336 98.3261 38.8359 96.972 38.8359Z" fill="#756F6F"/>
<path d="M99.4233 41.2873V55.168C99.4233 56.5215 98.3255 57.6195 96.972 57.6195H89.6196C90.9731 57.6195 92.071 56.5215 92.071 55.168V41.2873C92.071 39.9338 90.9731 38.8359 89.6196 38.8359H96.972C98.3255 38.8359 99.4233 39.934 99.4233 41.2873Z" fill="#5B5555"/>
<path d="M84.489 89.9035C83.1827 91.2098 81.0649 91.2098 79.7587 89.9035L54.8335 64.9783L59.5638 60.248L84.489 85.1732C85.7952 86.4795 85.7952 88.5973 84.489 89.9035Z" fill="#1785F8"/>
<path d="M61.9482 72.0936L79.7586 89.9039C81.0648 91.2102 83.1826 91.2102 84.4889 89.9039C85.7951 88.5977 85.7951 86.4799 84.4889 85.1736L66.6785 67.3633L61.9482 72.0936Z" fill="#EFE2DD"/>
<path d="M42.5136 71.6023C55.7897 71.6023 66.552 60.84 66.552 47.5639C66.552 34.2878 55.7897 23.5254 42.5136 23.5254C29.2375 23.5254 18.4751 34.2878 18.4751 47.5639C18.4751 60.84 29.2375 71.6023 42.5136 71.6023Z" fill="#31A7FB"/>
<path d="M38.5117 30.6055C34.9043 31.4512 31.7305 33.4199 29.377 36.123C28.4355 35.1406 27.8574 33.8086 27.8574 32.3418C27.8574 29.3223 30.3066 26.873 33.3262 26.873C35.7383 26.873 37.7871 28.4375 38.5117 30.6055Z" fill="#1C96F9"/>
<path d="M66.5522 47.5656C66.5522 60.8412 55.7895 71.6039 42.514 71.6039C41.5101 71.6039 40.5226 71.5426 39.5513 71.4219C51.4282 69.9621 60.6249 59.8373 60.6249 47.5656C60.6249 35.292 51.4284 25.1672 39.5493 23.7074C40.5204 23.5867 41.5101 23.5254 42.514 23.5254C55.7895 23.5254 66.5522 34.2881 66.5522 47.5656Z" fill="#1C96F9"/>
<path d="M42.5138 64.9875C52.1359 64.9875 59.9362 57.1872 59.9362 47.565C59.9362 37.9429 52.1359 30.1426 42.5138 30.1426C32.8916 30.1426 25.0913 37.9429 25.0913 47.565C25.0913 57.1872 32.8916 64.9875 42.5138 64.9875Z" fill="#D4F2F6"/>
<path d="M38.7949 32.3418C38.7949 35.3613 36.3457 37.8105 33.3262 37.8105C31.7734 37.8105 30.3711 37.1621 29.377 36.123C31.7305 33.4199 34.9043 31.4512 38.5117 30.6055C38.6953 31.1504 38.7949 31.7344 38.7949 32.3418Z" fill="#A8E7EF"/>
<path d="M59.936 47.5645C59.936 57.1863 52.1358 64.9863 42.5142 64.9863C41.4856 64.9863 40.4798 64.8963 39.5005 64.7267C47.687 63.2996 53.9087 56.1578 53.9087 47.5645C53.9087 38.9689 47.687 31.8273 39.5005 30.4002C40.4798 30.2305 41.4858 30.1406 42.5142 30.1406C52.136 30.1404 59.936 37.9404 59.936 47.5645Z" fill="#A8E7EF"/>
<path d="M23.1864 19.0398C25.8553 19.0398 28.0188 16.8763 28.0188 14.2074C28.0188 11.5385 25.8553 9.375 23.1864 9.375C20.5176 9.375 18.354 11.5385 18.354 14.2074C18.354 16.8763 20.5176 19.0398 23.1864 19.0398Z" fill="#A8E7EF"/>
<path d="M28.0184 14.2068C28.0184 16.8766 25.8543 19.0408 23.1865 19.0408C22.2922 19.0408 21.4529 18.7979 20.7354 18.3717C22.6322 17.9344 24.0455 16.2363 24.0455 14.2068C24.0455 12.1795 22.6344 10.4791 20.7375 10.042C21.4553 9.61797 22.2922 9.375 23.1865 9.375C25.8541 9.375 28.0184 11.5393 28.0184 14.2068Z" fill="#70D9E6"/>
<path d="M63.8621 22.8961C66.261 22.8961 68.2057 20.9514 68.2057 18.5525C68.2057 16.1537 66.261 14.209 63.8621 14.209C61.4632 14.209 59.5186 16.1537 59.5186 18.5525C59.5186 20.9514 61.4632 22.8961 63.8621 22.8961Z" fill="#64B9FC"/>
<path d="M68.2055 18.552C68.2055 20.9518 66.2602 22.8969 63.8625 22.8969C63.0586 22.8969 62.3043 22.6785 61.6592 22.2955C63.3643 21.9025 64.6346 20.3762 64.6346 18.552C64.6346 16.7297 63.3662 15.2014 61.6611 14.8084C62.3062 14.4273 63.0586 14.209 63.8625 14.209C66.2603 14.209 68.2055 16.1541 68.2055 18.552Z" fill="#31A7FB"/>
<path d="M27.8574 27.941C27.8574 24.9209 30.3057 22.4727 33.3258 22.4727C36.3459 22.4727 38.7941 24.9209 38.7941 27.941C38.7941 30.9611 36.3459 33.4092 33.3258 33.4092C30.3057 33.4092 27.8574 30.9609 27.8574 27.941Z" fill="#BCEA73"/>
<path d="M30.5522 32.6531C32.6987 32.1584 34.2981 30.2367 34.2981 27.9402C34.2981 25.6461 32.7013 23.7221 30.5548 23.2273C31.3669 22.7475 32.314 22.4727 33.3261 22.4727C36.3448 22.4727 38.7937 24.9217 38.7937 27.9402C38.7937 30.9613 36.3446 33.4103 33.3261 33.4103C32.314 33.4102 31.3644 33.1353 30.5522 32.6531Z" fill="#99D53B"/>
<path d="M96.9721 37.3709H76.5188C75.7096 37.3709 75.0539 38.0268 75.0539 38.8357C75.0539 39.6447 75.7096 40.3006 76.5188 40.3006H80.2105V56.1537H66.5273C67.4906 53.4688 68.017 50.5773 68.017 47.565C68.017 45.042 67.6469 42.6039 66.9611 40.3006H69.2869C70.0961 40.3006 70.7518 39.6447 70.7518 38.8357C70.7518 38.0268 70.0961 37.3709 69.2869 37.3709H65.8885C61.9471 28.3682 52.9537 22.0617 42.5137 22.0617C40.8777 22.0617 39.2441 22.2193 37.6498 22.5271C36.4633 21.5775 34.9604 21.0078 33.326 21.0078C29.5502 21.0078 26.4717 24.0422 26.3963 27.8004C23.2088 30.401 20.7328 33.6803 19.1258 37.3709H4.80527C2.6457 37.3709 0.888672 39.1277 0.888672 41.2875V55.1668C0.888672 57.3264 2.6457 59.0834 4.80527 59.0834H19.7592C21.2355 61.9955 23.2697 64.625 25.7746 66.8063C30.4123 70.8445 36.357 73.0686 42.5137 73.0686C47.7166 73.0686 52.5596 71.5012 56.5982 68.8156L78.7227 90.9398C79.6604 91.8773 80.8918 92.3461 82.1234 92.3461C83.3553 92.3461 84.5869 91.8773 85.5246 90.9397C87.3998 89.0643 87.3998 86.0131 85.5246 84.1377L63.4693 62.0826C64.1328 61.1279 64.7334 60.1264 65.2637 59.0832H96.9721C99.1316 59.0832 100.889 57.3262 100.889 55.1666V41.2873C100.889 39.1277 99.1316 37.3709 96.9721 37.3709ZM33.326 23.9375C35.5336 23.9375 37.3295 25.7334 37.3295 27.941C37.3295 30.1484 35.5336 31.9445 33.326 31.9445C31.1184 31.9445 29.3225 30.1486 29.3225 27.941C29.3225 25.7334 31.1184 23.9375 33.326 23.9375ZM27.6986 64.5967C23.6336 61.057 20.9646 56.1875 20.1834 50.8852C20.0654 50.0846 19.3184 49.5314 18.5207 49.6494C17.7201 49.7674 17.167 50.5117 17.285 51.3121C17.5293 52.9707 17.9377 54.5916 18.4971 56.1537H4.80527C4.26113 56.1537 3.81836 55.7109 3.81836 55.1668V41.2875C3.81836 40.7434 4.26113 40.3006 4.80527 40.3006H18.0605C17.7383 41.39 17.4863 42.5059 17.3105 43.6434C17.1871 44.4428 17.7352 45.191 18.5348 45.3147C18.6105 45.3264 18.6857 45.332 18.76 45.332C19.4703 45.332 20.0941 44.8143 20.2059 44.0906C20.9824 39.0617 23.4189 34.4965 27.1295 31.0459C27.693 32.166 28.551 33.1125 29.6016 33.7846C25.8252 37.3324 23.6262 42.3297 23.6262 47.5652C23.6262 51.9129 25.1396 56.1572 27.8879 59.5162C30.5975 62.8277 34.3814 65.142 38.5432 66.0328C38.6465 66.0549 38.7496 66.0654 38.8512 66.0654C39.5271 66.0654 40.1348 65.5945 40.282 64.9068C40.4514 64.1158 39.9473 63.3371 39.1561 63.1678C31.8549 61.6051 26.5557 55.043 26.5557 47.565C26.5557 42.5893 28.907 37.8674 32.8625 34.8568C33.0158 34.867 33.1699 34.874 33.3256 34.874C35.6281 34.874 37.6711 33.7447 38.9326 32.0119C40.1008 31.7443 41.3033 31.6074 42.5133 31.6074C51.3123 31.6074 58.4707 38.766 58.4707 47.565C58.4707 55.0869 53.1348 61.6568 45.7826 63.1869C44.9906 63.3518 44.4822 64.1275 44.6471 64.9195C44.791 65.6109 45.4002 66.0861 46.0797 66.0861C46.1787 66.0861 46.2791 66.076 46.3797 66.0551C55.0834 64.2436 61.4004 56.4674 61.4004 47.5648C61.4004 37.1504 52.9275 28.6775 42.5133 28.6775C41.7387 28.6775 40.9664 28.7252 40.2012 28.8188C40.2377 28.5311 40.2588 28.2385 40.2588 27.9408C40.2588 26.9557 40.051 26.0186 39.6789 25.1689C40.6166 25.0518 41.5643 24.9912 42.5133 24.9912C54.9604 24.9912 65.0869 35.1178 65.0869 47.5648C65.0869 60.0119 54.9609 70.1387 42.5137 70.1387C37.0643 70.1387 31.8027 68.1705 27.6986 64.5967ZM83.4529 88.868C82.7199 89.6008 81.5271 89.601 80.7941 88.868L64.0197 72.0936L66.6783 69.435L83.4529 86.2094C84.1857 86.9424 84.1857 88.1352 83.4529 88.868ZM64.6066 67.3633L61.948 70.0219L58.9635 67.0373C59.9217 66.2266 60.8193 65.3469 61.649 64.4055L64.6066 67.3633ZM97.959 55.1668C97.959 55.7109 97.5162 56.1537 96.9721 56.1537H83.1402V40.3006H96.9721C97.5162 40.3006 97.959 40.7434 97.959 41.2875V55.1668Z" fill="black"/>
<path d="M88.6756 44.6861C87.5495 45.8122 87.2741 47.4708 87.8467 48.8589L86.3153 50.3903C85.7432 50.9624 85.7432 51.89 86.3153 52.4618C86.6014 52.7478 86.9764 52.8909 87.3512 52.8909C87.726 52.8909 88.101 52.748 88.3872 52.4618L89.9186 50.9304C90.3866 51.1236 90.8848 51.2212 91.3836 51.2212C92.3641 51.2212 93.3448 50.848 94.0913 50.1017H94.0915C95.5844 48.6085 95.5844 46.1792 94.0913 44.6861C92.5981 43.1931 90.1686 43.1933 88.6756 44.6861ZM92.0198 48.03C91.6688 48.3808 91.0979 48.3808 90.7473 48.03C90.3965 47.6792 90.3965 47.1083 90.7473 46.7575C90.9225 46.5822 91.153 46.4945 91.3835 46.4945C91.6139 46.4945 91.8442 46.5822 92.0196 46.7575C92.3704 47.1085 92.3704 47.6792 92.0198 48.03Z" fill="black"/>
<path d="M11.2718 31.1783C11.5579 31.4642 11.9329 31.6074 12.3077 31.6074C12.6825 31.6074 13.0575 31.4644 13.3437 31.1783L14.5079 30.014L15.6722 31.1783C15.9583 31.4642 16.3333 31.6074 16.7081 31.6074C17.0829 31.6074 17.4579 31.4644 17.744 31.1783C18.3161 30.6062 18.3161 29.6787 17.744 29.1068L16.5796 27.9423L17.744 26.7779C18.3161 26.2058 18.3161 25.2783 17.744 24.7064C17.1718 24.1343 16.2444 24.1343 15.6724 24.7064L14.5081 25.8707L13.3438 24.7064C12.7716 24.1343 11.8442 24.1343 11.2722 24.7064C10.7001 25.2785 10.7001 26.206 11.2722 26.7779L12.4366 27.9423L11.2722 29.1068C10.6997 29.6787 10.6997 30.6062 11.2718 31.1783Z" fill="black"/>
<path d="M69.4916 28.9791L70.656 30.1435L69.4916 31.308C68.9195 31.88 68.9195 32.8076 69.4916 33.3794C69.7777 33.6654 70.1527 33.8085 70.5275 33.8085C70.9023 33.8085 71.2773 33.6656 71.5634 33.3794L72.7277 32.2152L73.892 33.3794C74.1781 33.6654 74.5531 33.8085 74.9279 33.8085C75.3027 33.8085 75.6777 33.6656 75.9638 33.3794C76.5359 32.8074 76.5359 31.8798 75.9638 31.308L74.7994 30.1435L75.9638 28.9791C76.5359 28.407 76.5359 27.4794 75.9638 26.9076C75.3916 26.3355 74.4642 26.3355 73.8921 26.9076L72.7279 28.0718L71.5636 26.9076C70.9914 26.3355 70.064 26.3355 69.4919 26.9076C68.9195 27.4794 68.9195 28.407 69.4916 28.9791Z" fill="black"/>
<path d="M23.1864 20.5047C26.6587 20.5047 29.4835 17.6799 29.4835 14.2074C29.4835 10.735 26.6587 7.91016 23.1864 7.91016C19.7142 7.91016 16.8892 10.7352 16.8892 14.2074C16.8892 17.6797 19.7142 20.5047 23.1864 20.5047ZM23.1864 10.8398C25.0433 10.8398 26.5538 12.3504 26.5538 14.2074C26.5538 16.0645 25.0433 17.575 23.1864 17.575C21.3294 17.575 19.8188 16.0645 19.8188 14.2074C19.8188 12.3504 21.3294 10.8398 23.1864 10.8398Z" fill="black"/>
<path d="M63.8621 24.3609C67.0648 24.3609 69.6705 21.7553 69.6705 18.5525C69.6705 15.3498 67.0648 12.7441 63.8621 12.7441C60.6594 12.7441 58.0537 15.3498 58.0537 18.5525C58.0537 21.7555 60.6592 24.3609 63.8621 24.3609ZM63.8621 15.6738C65.4494 15.6738 66.7408 16.9652 66.7408 18.5525C66.7408 20.1398 65.4494 21.4313 63.8621 21.4313C62.2748 21.4313 60.9834 20.1398 60.9834 18.5525C60.9834 16.9652 62.2748 15.6738 63.8621 15.6738Z" fill="black"/>
<path d="M45.6513 53.0215C46.0651 53.0215 46.4765 52.8471 46.7661 52.5076C47.2913 51.8924 47.2183 50.9678 46.603 50.4424C45.4087 49.4229 43.8226 48.8586 42.137 48.8535C42.1294 48.8535 42.1218 48.8535 42.114 48.8535C40.4372 48.8535 38.8567 49.4078 37.6616 50.4156C37.0433 50.9371 36.9646 51.8613 37.4862 52.4799C38.0075 53.0983 38.9317 53.177 39.5503 52.6555C40.2079 52.1008 41.1419 51.7834 42.1147 51.7834H42.1282C43.106 51.7863 44.0439 52.1098 44.7011 52.6709C44.9769 52.9065 45.3149 53.0215 45.6513 53.0215Z" fill="black"/>
<path d="M34.3592 43.4336H34.342C33.5328 43.4336 32.8857 44.0895 32.8857 44.8984C32.8857 45.7074 33.55 46.3633 34.3592 46.3633C35.1684 46.3633 35.824 45.7074 35.824 44.8984C35.824 44.0895 35.1684 43.4336 34.3592 43.4336Z" fill="black"/>
<path d="M50.1264 46.3523C50.132 46.3529 50.1377 46.3543 50.1434 46.3549C50.1742 46.3582 50.2057 46.3588 50.2371 46.3602C50.2555 46.3609 50.2736 46.3631 50.2922 46.3633H50.3004C51.1057 46.3633 51.7607 45.7127 51.765 44.9064C51.7689 44.1955 51.2656 43.6004 50.5943 43.4635C50.5894 43.4625 50.5844 43.4621 50.5795 43.4611C50.5373 43.4529 50.4945 43.4459 50.4512 43.4416C50.4336 43.4398 50.4156 43.4398 50.398 43.4387C50.3682 43.4367 50.3387 43.4338 50.3086 43.4336H50.2912C50.2885 43.4336 50.2859 43.4336 50.283 43.4336C50.2326 43.4336 50.1828 43.4361 50.1336 43.4412C49.3949 43.5154 48.8252 44.1395 48.8252 44.8986C48.825 45.6492 49.3973 46.2672 50.1264 46.3523Z" fill="black"/>
</g>
<defs>
<clipPath id="clip0_147_34455">
<rect width="100" height="100" fill="white" transform="translate(0.888672 0.128906)"/>
</clipPath>
</defs>
</svg>
