<svg width="24" height="25" viewBox="0 0 24 25" fill="none" xmlns="http://www.w3.org/2000/svg">
<path fill-rule="evenodd" clip-rule="evenodd" d="M16.334 2.26465C19.723 2.26465 22 4.64265 22 8.18065V16.3486C22 19.8866 19.723 22.2646 16.333 22.2646H7.665C4.276 22.2646 2 19.8866 2 16.3486V8.18065C2 4.64265 4.276 2.26465 7.665 2.26465H16.334ZM16.334 3.76465H7.665C5.135 3.76465 3.5 5.49765 3.5 8.18065V16.3486C3.5 19.0316 5.135 20.7646 7.665 20.7646H16.333C18.864 20.7646 20.5 19.0316 20.5 16.3486V8.18065C20.5 5.49765 18.864 3.76465 16.334 3.76465ZM10.1305 9.32725L11.998 11.1946L13.8645 9.32935C14.1575 9.03635 14.6315 9.03635 14.9245 9.32935C15.2175 9.62235 15.2175 10.0963 14.9245 10.3893L13.058 12.2546L14.9265 14.1242C15.2195 14.4172 15.2195 14.8912 14.9265 15.1842C14.7805 15.3312 14.5875 15.4042 14.3965 15.4042C14.2045 15.4042 14.0125 15.3312 13.8665 15.1842L11.998 13.3146L10.1325 15.1813C9.9865 15.3283 9.7945 15.4013 9.6025 15.4013C9.4105 15.4013 9.2185 15.3283 9.0725 15.1813C8.7795 14.8883 8.7795 14.4143 9.0725 14.1213L10.938 12.2546L9.0705 10.3872C8.7775 10.0942 8.7775 9.62025 9.0705 9.32725C9.3645 9.03425 9.8385 9.03425 10.1305 9.32725Z" fill="white"/>
</svg>
