<svg width="24" height="25" viewBox="0 0 24 25" fill="none" xmlns="http://www.w3.org/2000/svg">
<path fill-rule="evenodd" clip-rule="evenodd" d="M16.334 2.26465C19.723 2.26465 22 4.64265 22 8.18065V16.3486C22 19.8866 19.723 22.2646 16.333 22.2646H7.665C4.276 22.2646 2 19.8866 2 16.3486V8.18065C2 4.64265 4.276 2.26465 7.665 2.26465H16.334ZM16.334 3.76465H7.665C5.135 3.76465 3.5 5.49765 3.5 8.18065V16.3486C3.5 19.0316 5.135 20.7646 7.665 20.7646H16.333C18.864 20.7646 20.5 19.0316 20.5 16.3486V8.18065C20.5 5.49765 18.864 3.76465 16.334 3.76465ZM16.0895 9.36165C16.3825 9.65465 16.3825 10.1286 16.0895 10.4216L11.3435 15.1676C11.1975 15.3146 11.0055 15.3876 10.8135 15.3876C10.6225 15.3876 10.4295 15.3146 10.2835 15.1676L7.9095 12.7946C7.6165 12.5016 7.6165 12.0276 7.9095 11.7346C8.2025 11.4416 8.6765 11.4416 8.9695 11.7346L10.8135 13.5766L15.0295 9.36165C15.3225 9.06865 15.7965 9.06865 16.0895 9.36165Z" fill="white"/>
</svg>
