<svg width="24" height="25" viewBox="0 0 24 25" fill="none" xmlns="http://www.w3.org/2000/svg">
<path fill-rule="evenodd" clip-rule="evenodd" d="M20.4174 3.83889C20.7104 4.13189 20.7104 4.60689 20.4174 4.89989L4.6434 20.6729C4.4974 20.8199 4.3054 20.8929 4.1134 20.8929C3.9214 20.8929 3.7294 20.8199 3.5834 20.6729C3.2904 20.3799 3.2904 19.9059 3.5834 19.6129L5.55535 17.6421C4.14153 16.349 2.94222 14.6058 2.0615 12.5531C1.9795 12.3631 1.9795 12.1491 2.0615 11.9601C3.0825 9.59609 4.5205 7.63909 6.2205 6.30209C9.51333 3.69614 13.8423 3.55782 17.2687 5.92742L19.3574 3.83889C19.6504 3.54589 20.1244 3.54589 20.4174 3.83889ZM20.0472 8.65989C20.7712 9.62089 21.4072 10.7319 21.9382 11.9579C22.0212 12.1479 22.0212 12.3639 21.9382 12.5529C19.8422 17.4099 16.1272 20.3089 12.0002 20.3089C11.0632 20.3089 10.1312 20.1569 9.2312 19.8579C8.8382 19.7269 8.6252 19.3019 8.7562 18.9089C8.8872 18.5149 9.3102 18.3059 9.7052 18.4339C10.4522 18.6829 11.2242 18.8089 12.0002 18.8089C15.4282 18.8089 18.5612 16.3669 20.4302 12.2559C19.9742 11.2569 19.4432 10.3519 18.8492 9.56189C18.6002 9.23089 18.6662 8.75989 18.9972 8.51089C19.3272 8.26189 19.7982 8.32989 20.0472 8.65989ZM7.1495 7.48009C5.7135 8.61009 4.4805 10.2561 3.5705 12.2581C4.36394 14.0105 5.40632 15.4885 6.61705 16.5798L8.75486 14.4423C8.31993 13.8023 8.0859 13.0478 8.0859 12.2577C8.0859 10.0977 9.8419 8.34069 11.9999 8.34069C12.7829 8.34069 13.5488 8.5791 14.1865 9.00999L16.188 7.00859C13.3352 5.16436 9.86299 5.33261 7.1495 7.48009ZM15.2375 12.0807C15.6455 12.1537 15.9165 12.5437 15.8435 12.9517C15.5565 14.5447 14.2945 15.8087 12.7025 16.0987C12.6575 16.1067 12.6115 16.1107 12.5675 16.1107C12.2125 16.1107 11.8965 15.8567 11.8305 15.4947C11.7565 15.0877 12.0265 14.6967 12.4345 14.6227C13.4145 14.4447 14.1905 13.6667 14.3665 12.6857C14.4405 12.2787 14.8305 12.0107 15.2375 12.0807ZM11.9999 9.84069C10.6689 9.84069 9.5859 10.9247 9.5859 12.2577C9.5859 12.6431 9.67663 13.0151 9.84765 13.3492L13.0933 10.1031C12.7591 9.93285 12.3833 9.84069 11.9999 9.84069Z" fill="black"/>
</svg>
