<svg width="25" height="25" viewBox="0 0 25 25" fill="none" xmlns="http://www.w3.org/2000/svg">
<path fill-rule="evenodd" clip-rule="evenodd" d="M12.1166 2.78125C14.5626 2.78125 16.5526 4.77125 16.5526 7.21725V8.14925C16.5526 8.56325 16.2166 8.89925 15.8026 8.89925C15.3886 8.89925 15.0526 8.56325 15.0526 8.14925V7.21725C15.0526 5.59725 13.7356 4.28125 12.1166 4.28125H7.24159C5.62459 4.28125 4.30859 5.59725 4.30859 7.21725V18.3462C4.30859 19.9653 5.62459 21.2812 7.24159 21.2812H12.1276C13.7396 21.2812 15.0526 19.9692 15.0526 18.3573V17.4143C15.0526 17.0003 15.3886 16.6643 15.8026 16.6643C16.2166 16.6643 16.5526 17.0003 16.5526 17.4143V18.3573C16.5526 20.7973 14.5666 22.7812 12.1276 22.7812H7.24159C4.79759 22.7812 2.80859 20.7922 2.80859 18.3462V7.21725C2.80859 4.77125 4.79759 2.78125 7.24159 2.78125H12.1166ZM20.1967 9.33525L23.1247 12.2502C23.1508 12.2762 23.1742 12.3031 23.1956 12.3316L23.1247 12.2502C23.1601 12.2852 23.1916 12.3233 23.219 12.3641C23.231 12.3825 23.2426 12.4016 23.2534 12.4212C23.2621 12.4365 23.2701 12.4525 23.2776 12.4687C23.2839 12.4831 23.2899 12.4974 23.2956 12.512C23.3031 12.531 23.3097 12.5506 23.3155 12.5704C23.3199 12.586 23.3239 12.6015 23.3274 12.6173C23.3319 12.6364 23.3354 12.6556 23.3381 12.6749C23.3397 12.6875 23.3412 12.7007 23.3424 12.714C23.3447 12.7368 23.3457 12.759 23.3457 12.7812L23.3406 12.8433L23.3385 12.883C23.3383 12.8847 23.3381 12.8864 23.3378 12.8881L23.3457 12.7812C23.3457 12.8368 23.3396 12.8917 23.3276 12.9452C23.3239 12.961 23.3199 12.9765 23.3154 12.9919C23.3097 13.0119 23.3031 13.0315 23.2957 13.0507C23.2899 13.0651 23.2839 13.0794 23.2774 13.0936C23.2701 13.11 23.2621 13.126 23.2535 13.1417C23.2426 13.1609 23.231 13.18 23.2186 13.1985C23.2116 13.2095 23.2039 13.2203 23.1959 13.2309C23.1721 13.2622 23.1461 13.2917 23.1181 13.319L20.1967 16.2282C20.0507 16.3742 19.8587 16.4473 19.6677 16.4473C19.4757 16.4473 19.2827 16.3742 19.1367 16.2262C18.8447 15.9323 18.8457 15.4583 19.1387 15.1663L20.7786 13.5312H10.5544C10.1404 13.5312 9.80439 13.1952 9.80439 12.7812C9.80439 12.3673 10.1404 12.0312 10.5544 12.0312H20.7806L19.1387 10.3973C18.8457 10.1053 18.8437 9.63125 19.1367 9.33725C19.4287 9.04325 19.9027 9.04325 20.1967 9.33525Z" fill="white"/>
</svg>
