<svg width="32" height="32" viewBox="0 0 32 32" fill="none" xmlns="http://www.w3.org/2000/svg">
<circle cx="15.8642" cy="15.8642" r="15.8642" fill="#2FB2FC"/>
<path fill-rule="evenodd" clip-rule="evenodd" d="M14.6028 21.4438C14.9913 21.8765 15.4901 22.1143 16.0076 22.1143H16.0083C16.5281 22.1143 17.0291 21.8765 17.4183 21.443C17.6268 21.2128 17.9823 21.194 18.2126 21.4018C18.4436 21.6095 18.4623 21.9658 18.2546 22.196C17.6486 22.8688 16.8513 23.2393 16.0083 23.2393H16.0068C15.1661 23.2385 14.3703 22.868 13.7666 22.1953C13.5588 21.965 13.5776 21.6088 13.8086 21.4018C14.0396 21.1933 14.3951 21.212 14.6028 21.4438ZM16.0449 7.11426C19.3787 7.11426 21.6182 9.71076 21.6182 12.1355C21.6182 13.3828 21.9354 13.9115 22.2722 14.4725C22.6052 15.026 22.9824 15.6545 22.9824 16.8425C22.7207 19.8778 19.5519 20.1253 16.0449 20.1253C12.5379 20.1253 9.36845 19.8778 9.10969 16.8905C9.10745 15.6545 9.4847 15.026 9.8177 14.4725L9.93526 14.2746C10.2247 13.7772 10.4717 13.236 10.4717 12.1355C10.4717 9.71076 12.7112 7.11426 16.0449 7.11426ZM16.0449 8.23926C13.4237 8.23926 11.5967 10.2928 11.5967 12.1355C11.5967 13.6948 11.1639 14.4155 10.7814 15.0515C10.4747 15.5623 10.2324 15.9658 10.2324 16.8425C10.3577 18.257 11.2914 19.0003 16.0449 19.0003C20.7722 19.0003 21.7352 18.224 21.8597 16.7938C21.8574 15.9658 21.6152 15.5623 21.3084 15.0515C20.9259 14.4155 20.4932 13.6948 20.4932 12.1355C20.4932 10.2928 18.6662 8.23926 16.0449 8.23926Z" fill="white"/>
<circle cx="26.3972" cy="3.86429" r="3.86429" fill="#FF1111"/>
</svg>
