<svg width="25" height="25" viewBox="0 0 25 25" fill="none" xmlns="http://www.w3.org/2000/svg">
<path fill-rule="evenodd" clip-rule="evenodd" d="M14.7837 2.15234C14.8266 2.15234 14.8687 2.15596 14.9097 2.1629L15.0466 2.16374C15.2506 2.16374 15.4456 2.24674 15.5876 2.39374L20.6526 7.67074C20.7866 7.80974 20.8617 7.99674 20.8617 8.18974V17.3557C20.8796 19.8647 18.9256 21.9147 16.4126 22.0167L8.39357 22.0177H8.28457C5.83463 21.9624 3.86973 19.981 3.80987 17.5549L3.80957 6.64274C3.86757 4.16174 5.91657 2.16374 8.37957 2.16374L14.6576 2.1629C14.6986 2.15596 14.7407 2.15234 14.7837 2.15234ZM14.0336 3.66334L8.38157 3.66374C6.72457 3.66374 5.34857 5.00574 5.30957 6.66074V17.3557C5.27257 19.0687 6.62257 20.4797 8.31857 20.5177H16.3826C18.0516 20.4487 19.3736 19.0617 19.3617 17.3617L19.3616 9.13534L17.3517 9.13634C15.5217 9.13134 14.0337 7.63934 14.0337 5.81134L14.0336 3.66334ZM14.5969 14.7604C15.0109 14.7604 15.3469 15.0964 15.3469 15.5104C15.3469 15.9244 15.0109 16.2604 14.5969 16.2604H9.19687C8.78287 16.2604 8.44687 15.9244 8.44687 15.5104C8.44687 15.0964 8.78287 14.7604 9.19687 14.7604H14.5969ZM12.552 11.0084C12.966 11.0084 13.302 11.3444 13.302 11.7584C13.302 12.1724 12.966 12.5084 12.552 12.5084H9.19597C8.78197 12.5084 8.44597 12.1724 8.44597 11.7584C8.44597 11.3444 8.78197 11.0084 9.19597 11.0084H12.552ZM15.5336 4.50434L15.5337 5.81134C15.5337 6.81534 16.3507 7.63334 17.3537 7.63634L18.5396 7.63534L15.5336 4.50434Z" fill="white"/>
</svg>
