<svg width="33" height="65" viewBox="0 0 33 65" fill="none" xmlns="http://www.w3.org/2000/svg">
<path d="M19.6161 27.0482V28.2164C19.6161 35.1285 19.6097 42.047 19.6355 48.9655C19.6355 49.6367 19.4419 49.7916 18.8029 49.7787C16.7506 49.74 14.7047 49.7593 12.6524 49.7722C12.4136 49.7722 12.0651 49.6367 12.0393 50.0885C12.0135 50.579 12.3878 50.4757 12.6589 50.4757L18.9578 50.4822C19.1643 50.4822 19.4999 50.3789 19.5451 50.6242C19.6097 50.9662 19.2289 50.9146 19.0159 50.9727L12.6718 52.7023C12.5298 52.741 12.3813 52.7604 12.2458 52.8185C11.9748 52.9282 12.007 53.1734 12.0522 53.3864C12.1038 53.6704 12.3491 53.5542 12.4652 53.4961C13.6269 52.9088 14.6531 53.4058 15.7051 53.8382C16.841 54.3093 17.9897 54.7546 19.145 55.1806C19.5064 55.3161 19.6677 55.5097 19.6097 55.8905C19.5451 56.3358 19.1966 56.1551 18.9707 56.1616C16.8732 56.1745 14.7757 56.168 12.6718 56.1745C12.4136 56.1745 12.0457 56.0325 12.0264 56.5359C12.007 57.0457 12.3813 56.9102 12.646 56.9102C13.4785 56.9231 14.311 56.9167 15.1952 57.0522C14.2917 57.5749 13.4011 58.1106 12.4846 58.6076C12.0522 58.8399 11.9167 59.1174 12.1361 59.6531C13.2139 59.04 14.3304 58.5043 15.3243 57.8008C16.4924 56.9747 17.7445 56.8069 19.0998 56.8973C19.4741 56.9231 19.6032 57.007 19.6226 57.4007C19.7 59.1561 19.7129 59.1691 18.022 59.4982C16.2795 59.8338 14.5369 60.1436 12.7879 60.4663C12.3878 60.5437 12.0264 60.5631 11.9489 61.1568C11.6908 63.2027 9.97406 64.6355 8.03145 64.5193C5.91459 64.3838 4.38503 62.7832 4.37857 60.6147C4.35921 56.4391 4.37857 52.2634 4.37857 48.0942C4.37857 47.0294 4.37212 45.9709 4.38503 44.906C4.39148 44.5769 4.30758 44.4607 3.95262 44.3833C1.59696 43.8541 0.570801 42.4988 0.570801 40.0721C0.577255 34.3153 0.570801 28.5649 0.570801 22.8081C0.570801 22.1885 0.5708 21.5689 0.7386 20.9687C1.19682 19.3423 2.64249 18.2323 4.35921 18.2129C6.55352 18.1936 8.75428 18.2258 10.955 18.1871C11.5423 18.1806 11.6327 18.3872 11.6262 18.9099C11.6069 25.7768 11.6133 32.6437 11.6198 39.5106C11.6198 39.7301 11.6198 39.9559 11.6262 40.1754C11.6327 40.4013 11.7489 40.5626 11.9812 40.5626C12.2071 40.5626 12.3362 40.4013 12.3555 40.1818C12.3749 39.9624 12.3684 39.7365 12.3684 39.5171C12.3684 32.676 12.3813 25.8349 12.3491 18.9938C12.3491 18.3162 12.5427 18.1871 13.1687 18.2C15.2662 18.2387 17.3637 18.2258 19.4677 18.2065C20.4809 18.2 21.3457 18.5421 22.1138 19.1745C24.4049 21.0526 26.6895 22.9371 29 24.7958C30.0778 25.6607 30.6199 26.7578 30.5877 28.1325C30.5877 28.3067 30.5812 28.481 30.5812 28.6488C30.5877 29.1651 30.4199 29.7847 30.6457 30.1784C30.9104 30.6366 31.588 30.301 32.0785 30.3655C32.5496 30.4236 32.8336 30.643 32.8336 31.1077C32.8401 33.7731 32.9756 36.445 32.7691 39.104C32.6723 40.3948 31.9688 41.5307 31.233 42.5891C30.2779 43.9702 29.2904 45.3255 28.2965 46.6808C27.7673 47.4037 27.535 48.1652 27.5414 49.0881C27.5802 53.7801 27.5544 58.472 27.5544 63.164C27.5544 63.3834 27.5673 63.6093 27.5285 63.8287C27.4511 64.2805 27.1671 64.5451 26.7089 64.5064C26.2894 64.4741 26.0312 64.2031 26.0119 63.7836C25.9861 63.3382 25.999 62.8929 25.999 62.4476C25.999 58.0009 25.9796 53.5542 26.0248 49.1075C26.0312 48.1846 25.7924 47.423 25.2632 46.7002C24.2887 45.3643 23.3077 44.0348 22.3719 42.6666C21.6168 41.5629 20.9714 40.4013 20.7584 39.0459C20.7133 38.7555 20.6745 38.4586 20.6681 38.1618C20.6616 35.9416 20.6616 33.7151 20.6681 31.4949C20.6681 30.572 20.8875 30.3591 21.7911 30.3526C21.9395 30.3526 22.0944 30.372 22.2364 30.3462C22.4752 30.2945 22.8172 30.5269 22.9334 30.1396C23.0237 29.8234 22.8689 29.5846 22.6042 29.3845C21.6684 28.6682 20.7262 27.9131 19.6161 27.0482ZM26.7928 46.171C27.9287 44.5124 29.1743 43.0473 30.1811 41.4081C30.7361 40.4981 31.2911 39.5558 31.3234 38.478C31.3879 36.4321 31.3428 34.3798 31.3492 32.3339C31.3492 32.0371 31.2782 31.8757 30.9362 31.8886C30.607 31.8951 30.5941 32.0951 30.5941 32.3339V33.5214C30.5941 34.8058 30.6199 36.0901 30.5877 37.3679C30.5296 39.3622 28.8516 40.9821 26.8444 41.0337C24.9147 41.0789 23.1593 39.5752 23.0431 37.6261C22.9398 35.9287 22.9979 34.2249 22.9786 32.5211C22.9786 32.2371 23.0625 31.8822 22.5784 31.908C22.1267 31.9338 22.2751 32.2888 22.2751 32.5211C22.2622 34.4443 22.2751 36.374 22.2686 38.2908C22.2686 38.9233 22.4364 39.5106 22.6946 40.0721C23.7272 42.3116 25.3988 44.1058 26.7928 46.171ZM12.007 0.000145999C16.2214 0.0259614 19.6484 3.47232 19.6097 7.66087C19.5774 11.8236 16.131 15.2377 11.9812 15.2312C7.73457 15.2248 4.35276 11.7462 4.38503 7.41562C4.41729 3.37551 7.91528 -0.0256694 12.007 0.000145999ZM15.0016 64.3838C15.931 63.0607 16.8151 61.7377 17.7832 60.4792C18.164 59.9822 18.861 60.1049 19.429 60.0339C19.6226 60.0081 19.5903 60.2275 19.6097 60.3695C19.913 62.8348 17.4605 65.0162 15.0016 64.3838ZM16.8539 60.4727C15.9761 61.7312 15.1952 62.8284 14.4272 63.9384C14.253 64.1901 14.0916 64.145 13.8722 64.0159C13.0009 63.506 12.4588 62.7509 12.1296 61.8087C11.9941 61.4344 12.1813 61.3246 12.4911 61.2666C13.8915 61.0149 15.2856 60.7567 16.8539 60.4727ZM15.0597 52.8056C16.5699 52.399 17.8929 52.0505 19.216 51.6761C19.5322 51.5858 19.6161 51.6955 19.6097 51.9859C19.6032 52.7217 19.6097 53.4638 19.6097 54.1996C19.6097 54.4577 19.5258 54.561 19.2547 54.4577C17.9252 53.9285 16.5828 53.3993 15.0597 52.8056Z" fill="url(#paint0_linear_354_11224)"/>
<defs>
<linearGradient id="paint0_linear_354_11224" x1="16.727" y1="-29.886" x2="16.727" y2="95.9594" gradientUnits="userSpaceOnUse">
<stop stop-color="#29F39A"/>
<stop offset="1" stop-color="#04A6F3"/>
</linearGradient>
</defs>
</svg>
