<svg width="101" height="101" viewBox="0 0 101 101" fill="none" xmlns="http://www.w3.org/2000/svg">
<g clip-path="url(#clip0_156_46826)">
<path d="M44.3251 18.0508H88.1517V35.2533H44.3251V18.0508Z" fill="#688D97"/>
<path d="M94.7949 84.66V98.7258H37.6819V84.66C37.6819 71.1301 48.65 60.1621 62.1797 60.1621H70.2969C83.8268 60.1619 94.7949 71.1301 94.7949 84.66Z" fill="#21C1F8"/>
<path d="M94.795 84.6607V98.7252H88.1769V84.6607C88.1769 71.1305 77.2087 60.1621 63.6802 60.1621H70.2966C83.8269 60.1623 94.795 71.1305 94.795 84.6607Z" fill="#1FAAEE"/>
<path d="M71.4347 54.2988V63.5445C71.4347 66.4135 69.1078 68.7404 66.2388 68.7404C63.3678 68.7404 61.0408 66.4135 61.0408 63.5445V54.2988H71.4347Z" fill="#FDB0A0"/>
<path d="M71.4347 54.2988V61.2701C69.8627 61.9799 68.1011 62.3777 66.2388 62.3777C64.3765 62.3777 62.6129 61.9799 61.0408 61.2701V54.2988H71.4347Z" fill="#F9A08F"/>
<path d="M85.0803 41.7605C88.3672 41.7605 91.0318 39.0959 91.0318 35.809C91.0318 32.522 88.3672 29.8574 85.0803 29.8574C81.7933 29.8574 79.1287 32.522 79.1287 35.809C79.1287 39.0959 81.7933 41.7605 85.0803 41.7605Z" fill="#F9A08F"/>
<path d="M47.3963 41.7605C50.6833 41.7605 53.3479 39.0959 53.3479 35.809C53.3479 32.522 50.6833 29.8574 47.3963 29.8574C44.1093 29.8574 41.4447 32.522 41.4447 35.809C41.4447 39.0959 44.1093 41.7605 47.3963 41.7605Z" fill="#F9A08F"/>
<path d="M83.3975 27.9861V39.4189C83.3975 48.8812 75.8297 56.7205 66.3674 56.7928C56.8311 56.8611 49.0776 49.1547 49.0776 39.6338V27.9861C49.0776 18.5082 56.7625 10.8271 66.2385 10.8271C70.9784 10.8271 75.2672 12.7469 78.3725 15.8521C81.4756 18.9594 83.3975 23.248 83.3975 27.9861Z" fill="#FDB0A0"/>
<path d="M83.3975 27.9861V30.482C82.0207 30.9332 80.5559 31.1715 79.0483 31.1715H53.4307C51.9231 31.1715 50.4582 30.9313 49.0776 30.4801V27.9861C49.0776 18.5082 56.7625 10.8271 66.2385 10.8271C70.9784 10.8271 75.2672 12.7469 78.3725 15.8522C81.4756 18.9594 83.3975 23.248 83.3975 27.9861Z" fill="#F9A08F"/>
<path d="M59.0642 1.65527C51.5314 1.65527 45.0144 7.02148 43.7046 14.4395C43.6058 14.9992 43.5249 15.5662 43.4626 16.14C43.2814 17.8092 43.5197 19.4977 44.1585 21.0502L44.1607 21.0557C45.7068 24.8127 49.3675 27.2648 53.4302 27.2648H79.0488C83.1158 27.2648 86.7794 24.8074 88.3228 21.0447C88.9583 19.4951 89.1949 17.8105 89.0144 16.1453C88.9519 15.5697 88.8708 15.0008 88.7718 14.4395C87.462 7.02148 80.9449 1.65527 73.4122 1.65527H59.0642Z" fill="#3F5959"/>
<path d="M89.0728 17.233C89.0728 18.5377 88.8189 19.8324 88.3228 21.0453C86.7798 24.8088 83.1162 27.2656 79.048 27.2656H72.9429C77.0109 27.2656 80.6748 24.8088 82.2177 21.0453C82.7138 19.8324 82.9677 18.5377 82.9677 17.233C82.9677 16.8717 82.9482 16.5084 82.9091 16.1453C82.8466 15.5711 82.7666 15.0008 82.6669 14.4404C81.3564 7.0209 74.8394 1.65625 67.3068 1.65625H73.4119C80.9445 1.65625 87.4617 7.02109 88.772 14.4404C88.8716 15.001 88.9517 15.5713 89.0142 16.1453C89.0533 16.5086 89.0728 16.8719 89.0728 17.233Z" fill="#384848"/>
<path d="M26.4027 88.1305H21.7205C20.6417 88.1305 19.7673 87.2561 19.7673 86.1773V81.4951C19.7673 80.4164 20.6417 79.542 21.7205 79.542H26.4027C27.4814 79.542 28.3558 80.4164 28.3558 81.4951V86.1773C28.3558 87.2559 27.4814 88.1305 26.4027 88.1305Z" fill="#24D1F8"/>
<path d="M28.3554 81.4941V86.1777C28.3554 87.2559 27.4824 88.1309 26.4023 88.1309H22.1093C23.1875 88.1309 24.0625 87.2559 24.0625 86.1777V81.4941C24.0625 80.416 23.1875 79.541 22.1093 79.541H26.4023C27.4824 79.541 28.3554 80.416 28.3554 81.4941Z" fill="#21C1F8"/>
<path d="M20.7121 47.3817C20.5558 47.4313 20.3871 47.4313 20.2308 47.3817C16.1137 46.0725 12.907 43.8582 10.6877 40.7891C10.2681 40.209 9.92049 39.6452 9.63358 39.1206C8.85115 37.6895 8.45193 36.0805 8.45193 34.4495V22.2797C8.45193 21.9112 8.70389 21.5903 9.06209 21.5032L20.2822 18.7708C20.4064 18.7405 20.5361 18.7405 20.6605 18.7708L31.8805 21.5032C32.2387 21.5905 32.4906 21.9112 32.4906 22.2797V35.6307C32.4906 36.1086 32.4101 36.5829 32.2502 37.0331C31.9346 37.9211 31.3306 39.3016 30.2551 40.7891C28.0359 43.8582 24.8293 46.0723 20.7121 47.3817Z" fill="#31A7FB"/>
<path d="M32.4898 22.2803V35.6318C32.4898 36.1084 32.4097 36.583 32.2495 37.0342C31.9351 37.9209 31.3316 39.3018 30.2554 40.79C28.0366 43.8584 24.8296 46.0732 20.7124 47.3818C20.5562 47.4307 20.3863 47.4307 20.23 47.3818C18.8667 46.9482 17.6031 46.415 16.4429 45.7842C20.3003 44.458 23.3218 42.3057 25.4409 39.374C26.5171 37.8857 27.1206 36.5068 27.437 35.6182C27.5972 35.167 27.6773 34.6924 27.6773 34.2158V20.8643C27.6773 20.7139 27.6363 20.5732 27.564 20.4521L31.8804 21.5029C32.2378 21.5908 32.4898 21.9111 32.4898 22.2803Z" fill="#1C96F9"/>
<path d="M83.639 80.6064C82.8299 80.6064 82.1742 81.2621 82.1742 82.0713V98.7252C82.1742 99.5344 82.8299 100.19 83.639 100.19C84.4482 100.19 85.1039 99.5344 85.1039 98.7252V82.0713C85.1039 81.2623 84.4482 80.6064 83.639 80.6064Z" fill="#242424"/>
<path d="M48.8376 80.6064C48.0285 80.6064 47.3728 81.2621 47.3728 82.0713V98.7252C47.3728 99.5344 48.0285 100.19 48.8376 100.19C49.6468 100.19 50.3025 99.5344 50.3025 98.7252V82.0713C50.3025 81.2623 49.6468 80.6064 48.8376 80.6064Z" fill="#242424"/>
<path d="M72.8998 58.8277V57.0051C78.7523 54.7213 83.1972 49.5254 84.483 43.1988C84.6816 43.2148 84.8808 43.2256 85.0806 43.2256C89.1701 43.2256 92.4968 39.8988 92.4968 35.8096C92.4968 33.4279 91.3672 31.3064 89.6168 29.9486V21.7437C89.6371 21.6959 89.6588 21.649 89.6785 21.6008C90.4035 19.8328 90.6773 17.892 90.4709 15.9879C90.4056 15.3846 90.3193 14.7781 90.2144 14.185C88.7826 6.07598 81.7164 0.19043 73.4123 0.19043H73.1183C72.3092 0.19043 71.6535 0.846094 71.6535 1.65527C71.6535 2.46445 72.3092 3.12012 73.1183 3.12012H73.4123C80.2924 3.12012 86.1451 7.9877 87.3293 14.6943C87.4228 15.2236 87.4998 15.7648 87.5582 16.3035C87.7123 17.724 87.508 19.1717 86.9678 20.4893C85.6447 23.7154 82.5363 25.8 79.049 25.8H53.4304C49.9476 25.8 46.8408 23.7189 45.5156 20.4982C45.5142 20.4947 45.5123 20.4902 45.5105 20.4857C44.9693 19.167 44.7648 17.7191 44.9191 16.2984C44.9775 15.7617 45.0543 15.2221 45.1474 14.6941C46.3312 7.9877 52.1842 3.12012 59.0642 3.12012H66.5121C67.3213 3.12012 67.9769 2.46445 67.9769 1.65527C67.9769 0.846094 67.3213 0.19043 66.5121 0.19043H59.0642C50.7601 0.19043 43.6937 6.07598 42.2621 14.1848C42.1578 14.7762 42.0715 15.3809 42.0062 15.9816C41.7986 17.8902 42.0748 19.8357 42.8039 21.6078C42.8053 21.6113 42.8074 21.616 42.8092 21.6207C42.8254 21.6602 42.8433 21.6986 42.8601 21.7379V29.948C41.109 31.3059 39.9787 33.4275 39.9787 35.8094C39.9787 39.8986 43.3064 43.2254 47.3967 43.2254C47.5824 43.2254 47.7681 43.216 47.9537 43.2021C48.6553 46.8389 50.4273 50.1799 53.1152 52.8486C54.9879 54.708 57.1838 56.1207 59.5756 57.0354V58.8279C53.9769 59.3863 48.9168 61.7254 44.9494 65.2574L33.3228 53.6307C33.048 53.3561 32.6756 53.2018 32.2869 53.2018H6.08475C5.27557 53.2018 4.6199 53.8574 4.6199 54.6666C4.6199 55.4758 5.27557 56.1314 6.08475 56.1314H31.6806L42.8742 67.3252C38.7308 71.9404 36.2172 78.0328 36.2172 84.6598V88.0258C36.2172 88.835 36.8728 89.4906 37.682 89.4906C38.4912 89.4906 39.1469 88.835 39.1469 88.0258V84.6598C39.1469 78.8365 41.3347 73.4789 44.9478 69.3988L45.5179 69.9689C45.8041 70.2549 46.1789 70.3979 46.5539 70.3979C46.9287 70.3979 47.3037 70.2549 47.5898 69.9689C48.1619 69.3967 48.1619 68.4693 47.5898 67.8973L47.0248 67.3322C50.4549 64.3242 54.7865 62.3119 59.5761 61.7727V63.5447C59.5761 67.2176 62.5652 70.2057 66.239 70.2057C69.9119 70.2057 72.9 67.2176 72.9 63.5447V61.7723C84.4441 63.0711 93.3304 72.9146 93.3304 84.6598V98.7256C93.3304 99.5348 93.9861 100.19 94.7953 100.19C95.6045 100.19 96.2601 99.5348 96.2601 98.7256V84.6596C96.2597 71.3098 86.0728 60.1408 72.8998 58.8277ZM85.0804 40.2959C85.0006 40.2959 84.9207 40.2938 84.8412 40.2895C84.8543 40.0008 84.8619 39.7107 84.8619 39.4189V31.3336C84.9347 31.3301 85.0072 31.3234 85.0804 31.3234C87.5543 31.3234 89.567 33.3359 89.567 35.8098C89.567 38.2836 87.5543 40.2959 85.0804 40.2959ZM86.6867 25.8313V28.5709C86.1691 28.4561 85.632 28.3937 85.0802 28.3937C85.0072 28.3937 84.9345 28.3967 84.8617 28.3988V27.9855C84.8617 27.7137 84.8537 27.4412 84.8418 27.1697C85.4994 26.7865 86.1174 26.3383 86.6867 25.8313ZM45.79 25.8285C46.359 26.3355 46.9767 26.7836 47.6338 27.167C47.6219 27.4395 47.6138 27.7127 47.6138 27.9854V28.3986C47.5416 28.3965 47.4693 28.3936 47.3971 28.3936C46.8451 28.3936 46.308 28.4561 45.79 28.5709V25.8285ZM47.3969 40.2959C44.9219 40.2959 42.9086 38.2834 42.9086 35.8096C42.9086 33.3357 44.9221 31.3232 47.3969 31.3232C47.4693 31.3232 47.5414 31.3297 47.6136 31.3334V39.6338C47.6136 39.8533 47.6187 40.0719 47.6263 40.29C47.55 40.2939 47.4734 40.2959 47.3969 40.2959ZM50.5435 39.6338V28.3639C51.4713 28.6029 52.4394 28.7297 53.4304 28.7297H79.0488C80.0388 28.7297 81.0054 28.6031 81.9322 28.3648V39.4189C81.9322 48.127 74.9451 55.2633 66.3572 55.3271C66.3183 55.3275 66.2799 55.3275 66.241 55.3275C62.0672 55.3275 58.1427 53.7117 55.1797 50.7697C52.1898 47.8016 50.5435 43.8467 50.5435 39.6338ZM66.2388 67.2758C64.1802 67.2758 62.5056 65.6021 62.5056 63.5445V57.8844C63.7219 58.1305 64.9713 58.2572 66.2406 58.257C66.2863 58.257 66.3328 58.257 66.3785 58.2566C67.6072 58.2475 68.8078 58.1154 69.9701 57.8742V63.5443C69.9701 65.602 68.2963 67.2758 66.2388 67.2758Z" fill="#242424"/>
<path d="M37.6819 93.167C36.8727 93.167 36.217 93.8227 36.217 94.6318V98.7254C36.217 99.5346 36.8727 100.19 37.6819 100.19C38.491 100.19 39.1467 99.5346 39.1467 98.7254V94.6318C39.1467 93.8227 38.491 93.167 37.6819 93.167Z" fill="#242424"/>
<path d="M74.2912 36.8174C74.2968 36.8176 74.3027 36.8176 74.3083 36.8176C75.1095 36.8176 75.7634 36.1727 75.7726 35.3695C75.782 34.5605 75.1337 33.8973 74.3247 33.8881L74.3081 33.8879C74.3025 33.8877 74.2966 33.8877 74.291 33.8877C73.49 33.8877 72.8441 34.5326 72.8349 35.3357C72.8255 36.1447 73.482 36.8082 74.2912 36.8174Z" fill="#242424"/>
<path d="M58.1851 33.8887H58.1689C57.3597 33.8887 56.7121 34.5443 56.7121 35.3535C56.7121 36.1627 57.3759 36.8184 58.1851 36.8184C58.9943 36.8184 59.65 36.1627 59.65 35.3535C59.65 34.5443 58.9941 33.8887 58.1851 33.8887Z" fill="#242424"/>
<path d="M28.4168 60.334H9.88947C9.08029 60.334 8.42462 60.9896 8.42462 61.7988C8.42462 62.608 9.08029 63.2637 9.88947 63.2637H28.4166C29.2258 63.2637 29.8815 62.608 29.8815 61.7988C29.8815 60.9896 29.2258 60.334 28.4168 60.334Z" fill="#242424"/>
<path d="M28.4167 65.4775H17.8621C17.0529 65.4775 16.3972 66.1332 16.3972 66.9424C16.3972 67.7516 17.0529 68.4072 17.8621 68.4072H28.4167C29.2259 68.4072 29.8816 67.7516 29.8816 66.9424C29.8816 66.1332 29.2257 65.4775 28.4167 65.4775Z" fill="#242424"/>
<path d="M28.4167 70.6211H17.8621C17.0529 70.6211 16.3972 71.2768 16.3972 72.0859C16.3972 72.8951 17.0529 73.5508 17.8621 73.5508H28.4167C29.2259 73.5508 29.8816 72.8951 29.8816 72.0859C29.8816 71.2768 29.2257 70.6211 28.4167 70.6211Z" fill="#242424"/>
<path d="M26.4027 78.0771H21.7205C19.8359 78.0771 18.3025 79.6105 18.3025 81.4951V86.1775C18.3025 88.0621 19.8359 89.5955 21.7205 89.5955H26.4027C28.2873 89.5955 29.8207 88.0621 29.8207 86.1775V81.4951C29.8207 79.6105 28.2874 78.0771 26.4027 78.0771ZM26.891 86.1775C26.891 86.4469 26.672 86.6658 26.4027 86.6658H21.7205C21.4511 86.6658 21.2322 86.4469 21.2322 86.1775V81.4951C21.2322 81.2258 21.4511 81.0068 21.7205 81.0068H26.4027C26.672 81.0068 26.891 81.2258 26.891 81.4951V86.1775Z" fill="#242424"/>
<path d="M9.50073 41.6479C11.9056 44.9735 15.3662 47.3726 19.7873 48.7782C20.0111 48.8493 20.2412 48.8851 20.4714 48.8851C20.7017 48.8851 20.9318 48.8493 21.1558 48.7782C25.5767 47.3726 29.0374 44.9735 31.4419 41.6479C32.6173 40.0229 33.2808 38.5085 33.6302 37.5247C33.8458 36.9183 33.9554 36.2812 33.9554 35.6313V32.2479C33.9554 31.4388 33.2997 30.7831 32.4906 30.7831C31.6814 30.7831 31.0257 31.4388 31.0257 32.2479V35.6313C31.0257 35.9456 30.9732 36.2524 30.8697 36.5435C30.5841 37.3474 30.0398 38.5876 29.0679 39.9315C27.0749 42.6876 24.1835 44.702 20.4712 45.9208C16.7591 44.7019 13.8673 42.6874 11.8746 39.9317C11.5247 39.4478 11.2031 38.9386 10.9187 38.4186C10.2632 37.2194 9.91655 35.8472 9.91655 34.4503V22.8034L20.471 20.2331L31.0253 22.8034V25.6417C31.0253 26.4509 31.681 27.1065 32.4902 27.1065C33.2994 27.1065 33.955 26.4509 33.955 25.6417V22.2804C33.955 21.2327 33.2441 20.328 32.2265 20.0804L21.0052 17.3476C20.6562 17.263 20.2865 17.263 19.9351 17.3479L8.71537 20.0804C7.6976 20.328 6.98666 21.2325 6.98666 22.2804V34.4501C6.98666 36.3366 7.45737 38.1948 8.34799 39.8241C8.69174 40.4513 9.07924 41.0647 9.50073 41.6479Z" fill="#242424"/>
<path d="M20.4715 37.2748C21.2807 37.2748 21.9363 36.6191 21.9363 35.81V33.7453H24.001C24.8102 33.7453 25.4658 33.0896 25.4658 32.2805C25.4658 31.4713 24.8102 30.8156 24.001 30.8156H21.9363V28.751C21.9363 27.9418 21.2807 27.2861 20.4715 27.2861C19.6623 27.2861 19.0066 27.9418 19.0066 28.751V30.8156H16.942C16.1328 30.8156 15.4771 31.4713 15.4771 32.2805C15.4771 33.0896 16.1328 33.7453 16.942 33.7453H19.0066V35.81C19.0066 36.6191 19.6623 37.2748 20.4715 37.2748Z" fill="#242424"/>
<path d="M72.7043 43.7991C72.7334 42.9905 72.1017 42.3116 71.2931 42.2823C70.4824 42.2553 69.8056 42.8848 69.7763 43.6934C69.7072 45.6067 68.1527 47.1055 66.2375 47.1055C64.3218 47.1055 62.7673 45.6069 62.6986 43.6936C62.6697 42.885 61.99 42.2524 61.182 42.2823C60.3734 42.3114 59.7415 42.9905 59.7707 43.7989C59.8966 47.2957 62.7371 50.0352 66.2373 50.0352C69.7375 50.0352 72.5781 47.2961 72.7043 43.7991Z" fill="#242424"/>
</g>
<defs>
<clipPath id="clip0_156_46826">
<rect width="100" height="100" fill="white" transform="translate(0.439819 0.19043)"/>
</clipPath>
</defs>
</svg>
