<svg width="19" height="19" viewBox="0 0 19 19" fill="none" xmlns="http://www.w3.org/2000/svg">
<g opacity="0.6" clip-path="url(#clip0_139_3782)">
<path fill-rule="evenodd" clip-rule="evenodd" d="M9.14043 2.46094C13.1679 2.46094 16.4439 5.73694 16.4439 9.76444C16.4439 11.6646 15.7147 13.3976 14.5214 14.6983L16.8695 17.0415C17.0892 17.2612 17.09 17.6167 16.8702 17.8365C16.7607 17.9475 16.616 18.0022 16.472 18.0022C16.3287 18.0022 16.1847 17.9475 16.0745 17.838L13.6981 15.4682C12.448 16.4693 10.8629 17.0687 9.14043 17.0687C5.11293 17.0687 1.83618 13.7919 1.83618 9.76444C1.83618 5.73694 5.11293 2.46094 9.14043 2.46094ZM9.14043 3.58594C5.73318 3.58594 2.96118 6.35719 2.96118 9.76444C2.96118 13.1717 5.73318 15.9437 9.14043 15.9437C12.5469 15.9437 15.3189 13.1717 15.3189 9.76444C15.3189 6.35719 12.5469 3.58594 9.14043 3.58594Z" fill="black"/>
</g>
<defs>
<clipPath id="clip0_139_3782">
<rect width="18" height="18" fill="white" transform="translate(0.336426 0.960938)"/>
</clipPath>
</defs>
</svg>
