<svg width="25" height="25" viewBox="0 0 25 25" fill="none" xmlns="http://www.w3.org/2000/svg">
<path fill-rule="evenodd" clip-rule="evenodd" d="M13.0754 2.78125C13.7914 2.78125 14.4874 3.07525 14.9864 3.58625C15.4844 4.10025 15.7594 4.80525 15.7384 5.52025C15.7404 5.68125 15.7934 5.86725 15.8894 6.03025C16.0484 6.30025 16.2994 6.49025 16.5974 6.56825C16.8954 6.64225 17.2074 6.60225 17.4724 6.44525C18.7524 5.71425 20.3814 6.15225 21.1124 7.42225L21.7354 8.50125C21.7514 8.53025 21.7654 8.55825 21.7774 8.58725C22.4394 9.83825 21.9974 11.4132 20.7674 12.1322C20.5884 12.2352 20.4434 12.3793 20.3434 12.5533C20.1884 12.8223 20.1454 13.1423 20.2234 13.4363C20.3034 13.7363 20.4944 13.9852 20.7634 14.1392C21.3704 14.4882 21.8234 15.0763 22.0044 15.7552C22.1854 16.4333 22.0864 17.1692 21.7334 17.7762L21.0694 18.8822C20.3384 20.1383 18.7094 20.5732 17.4424 19.8412C17.2734 19.7442 17.0784 19.6912 16.8844 19.6863H16.8784C16.5894 19.6863 16.2924 19.8092 16.0764 20.0243C15.8574 20.2432 15.7374 20.5353 15.7394 20.8453C15.7324 22.3143 14.5374 23.5023 13.0754 23.5023H11.8224C10.3534 23.5023 9.15843 22.3083 9.15843 20.8393C9.15643 20.6583 9.10443 20.4703 9.00743 20.3073C8.85043 20.0333 8.59643 19.8372 8.30343 19.7593C8.01243 19.6813 7.69343 19.7243 7.43143 19.8763C6.80343 20.2263 6.06443 20.3113 5.38843 20.1213C4.71343 19.9303 4.13043 19.4662 3.78843 18.8512L3.16343 17.7743C2.43243 16.5063 2.86743 14.8813 4.13343 14.1493C4.49243 13.9423 4.71543 13.5562 4.71543 13.1423C4.71543 12.7283 4.49243 12.3413 4.13343 12.1343C2.86643 11.3983 2.43243 9.76925 3.16243 8.50125L3.84043 7.38825C4.56143 6.13425 6.19143 5.69225 7.46243 6.42225C7.63543 6.52525 7.82343 6.57725 8.01443 6.57925C8.63743 6.57925 9.15843 6.06525 9.16843 5.43325C9.16443 4.73625 9.43943 4.06725 9.94043 3.56225C10.4434 3.05825 11.1114 2.78125 11.8224 2.78125H13.0754ZM13.0754 4.28125H11.8224C11.5124 4.28125 11.2224 4.40225 11.0034 4.62025C10.7854 4.83925 10.6664 5.13025 10.6684 5.44025C10.6474 6.90225 9.45243 8.07925 8.00543 8.07925C7.54143 8.07425 7.09443 7.94925 6.70643 7.71725C6.16143 7.40725 5.44943 7.59825 5.13043 8.15325L4.45343 9.26625C4.14343 9.80425 4.33343 10.5153 4.88543 10.8363C5.70443 11.3103 6.21543 12.1943 6.21543 13.1423C6.21543 14.0903 5.70443 14.9732 4.88343 15.4482C4.33443 15.7662 4.14443 16.4733 4.46243 17.0233L5.09343 18.1112C5.24943 18.3923 5.50443 18.5952 5.79943 18.6782C6.09343 18.7602 6.41743 18.7253 6.68743 18.5753C7.08443 18.3423 7.54643 18.2213 8.01043 18.2213C8.23943 18.2213 8.46843 18.2502 8.69243 18.3102C9.36843 18.4922 9.95543 18.9443 10.3034 19.5513C10.5294 19.9323 10.6544 20.3773 10.6584 20.8313C10.6584 21.4813 11.1804 22.0023 11.8224 22.0023H13.0754C13.7144 22.0023 14.2364 21.4843 14.2394 20.8453C14.2354 20.1393 14.5114 19.4683 15.0164 18.9633C15.5144 18.4653 16.2104 18.1663 16.9064 18.1863C17.3624 18.1973 17.8014 18.3203 18.1884 18.5403C18.7454 18.8593 19.4564 18.6692 19.7784 18.1192L20.4424 17.0122C20.5904 16.7572 20.6334 16.4373 20.5544 16.1423C20.4764 15.8472 20.2804 15.5913 20.0164 15.4403C19.3984 15.0843 18.9574 14.5103 18.7744 13.8223C18.5934 13.1473 18.6924 12.4103 19.0454 11.8033C19.2754 11.4033 19.6124 11.0663 20.0164 10.8343C20.5584 10.5173 20.7484 9.80825 20.4334 9.25625C20.4204 9.23425 20.4084 9.21125 20.3984 9.18725L19.8124 8.17125C19.4934 7.61625 18.7834 7.42525 18.2264 7.74225C17.6244 8.09825 16.9084 8.20025 16.2204 8.01925C15.5334 7.84125 14.9574 7.40625 14.5984 6.79225C14.3684 6.40825 14.2434 5.96125 14.2394 5.50625C14.2484 5.16425 14.1284 4.85725 13.9104 4.63225C13.6934 4.40825 13.3884 4.28125 13.0754 4.28125ZM12.4533 9.75535C14.3203 9.75535 15.8393 11.2754 15.8393 13.1424C15.8393 15.0093 14.3203 16.5274 12.4533 16.5274C10.5863 16.5274 9.06733 15.0093 9.06733 13.1424C9.06733 11.2754 10.5863 9.75535 12.4533 9.75535ZM12.4533 11.2554C11.4133 11.2554 10.5673 12.1024 10.5673 13.1424C10.5673 14.1824 11.4133 15.0274 12.4533 15.0274C13.4933 15.0274 14.3393 14.1824 14.3393 13.1424C14.3393 12.1024 13.4933 11.2554 12.4533 11.2554Z" fill="white"/>
</svg>
