<svg width="25" height="25" viewBox="0 0 25 25" fill="none" xmlns="http://www.w3.org/2000/svg">
<path fill-rule="evenodd" clip-rule="evenodd" d="M12.0296 4.95508C16.1656 4.95808 19.8796 7.85708 21.9656 12.7111C22.0476 12.9001 22.0476 13.1141 21.9656 13.3031C19.8806 18.1581 16.1656 21.0571 12.0296 21.0601H12.0236C7.88761 21.0571 4.17361 18.1581 2.08761 13.3031C2.00661 13.1141 2.00661 12.9001 2.08761 12.7111C4.17361 7.85708 7.88861 4.95808 12.0236 4.95508H12.0296ZM12.0266 6.45508C8.59061 6.45608 5.45661 8.89908 3.59661 13.0071C5.45661 17.1161 8.58961 19.5591 12.0266 19.5601C15.4636 19.5591 18.5966 17.1161 20.4566 13.0071C18.5966 8.89908 15.4636 6.45608 12.0266 6.45508ZM12.0263 9.09588C14.1833 9.09588 15.9383 10.8509 15.9383 13.0079C15.9383 15.1639 14.1833 16.9179 12.0263 16.9179C9.86931 16.9179 8.11531 15.1639 8.11531 13.0079C8.11531 10.8509 9.86931 9.09588 12.0263 9.09588ZM12.0263 10.5959C10.6963 10.5959 9.61531 11.6779 9.61531 13.0079C9.61531 14.3369 10.6963 15.4179 12.0263 15.4179C13.3563 15.4179 14.4383 14.3369 14.4383 13.0079C14.4383 11.6779 13.3563 10.5959 12.0263 10.5959Z" fill="black"/>
</svg>
