<svg width="60" height="61" viewBox="0 0 60 61" fill="none" xmlns="http://www.w3.org/2000/svg">
<g clip-path="url(#clip0_354_11210)">
<path d="M1.75879 43.3574C0.787187 43.3574 0.000976562 44.1436 0.000976562 45.1152V59.1777C0.000976562 60.1493 0.787187 60.9355 1.75879 60.9355H14.2978L17.8135 52.1465L14.2978 43.3574H1.75879ZM42.1524 8.85449C43.4036 7.26707 44.1807 5.09336 44.1807 2.69336C44.1807 1.72176 43.3944 0.935547 42.4228 0.935547H31.876C30.9044 0.935547 30.1182 1.72176 30.1182 2.69336C30.1182 5.09336 30.8951 7.26707 32.1463 8.85449C25.8827 10.9614 21.3291 16.822 21.3291 23.7871V45.1152L21.4492 55.5317L48.4859 55.1952L52.9697 45.7127V23.7871C52.9697 16.822 48.4162 10.9614 42.1524 8.85449V8.85449Z" fill="url(#paint0_linear_354_11210)"/>
<path d="M59.9829 42.7738C59.9211 42.3104 59.6808 41.8915 59.31 41.6099C59.294 41.5977 59.2778 41.5854 59.2617 41.5734C56.84 39.7536 53.3358 40.5243 51.5181 42.9477L44.8814 51.7957C43.8858 53.123 42.3234 53.9043 40.6642 53.9043H27.199C26.2274 53.9043 25.4412 53.1181 25.4412 52.1465C25.4412 51.1749 26.2274 50.3887 27.199 50.3887H30.1172H40.6641C42.6057 50.3887 44.1797 48.8145 44.1797 46.873C44.1797 44.9314 42.6057 43.3574 40.6641 43.3574H30.8416C29.2005 41.7473 26.9483 39.8418 23.0859 39.8418C20.9127 39.8418 18.9386 40.8306 17.0263 41.785C16.0772 42.2605 15.165 43.0594 14.2969 43.3574V60.9356H42.3643C45.1407 60.9356 47.7581 59.6406 49.4428 57.4336L59.6395 44.075C59.9211 43.7042 60.0482 43.2338 59.9829 42.7738Z" fill="url(#paint1_linear_354_11210)"/>
<path fill-rule="evenodd" clip-rule="evenodd" d="M33.6274 19.4121C33.7401 19.4121 33.8349 19.4198 33.9118 19.4351C33.9887 19.4504 34.0579 19.481 34.1194 19.5269C34.1809 19.5651 34.2398 19.6225 34.2962 19.699C34.3526 19.7755 34.4167 19.8787 34.4884 20.0088L36.6993 24.1812L39.747 24.1812V19.4121H42.0381V24.1812H44.2714V26.5641H42.0381V29.7441H44.2714V32.127H42.0381V36.1307H40.685C40.4851 36.1307 40.316 36.0848 40.1776 35.993C40.0392 35.9012 39.9059 35.7329 39.7778 35.4881L37.9954 32.127H34.5499V36.1307H32.2589V32.127H30.0254L30.0254 29.7441H32.2589V26.5641H30.0254L30.0254 24.1812H32.2589V19.4121H33.6274ZM34.5499 29.7441H36.7318L35.0455 26.5641H34.5404C34.5468 26.7752 34.5499 26.9768 34.5499 27.169V29.7441ZM39.7904 29.7441H39.6469L37.9619 26.5641H39.747V28.2591C39.747 28.5268 39.7522 28.8137 39.7624 29.1197C39.7694 29.3225 39.7787 29.5307 39.7904 29.7441Z" fill="#FFEEAD"/>
</g>
<defs>
<linearGradient id="paint0_linear_354_11210" x1="26.4853" y1="60.9355" x2="26.4853" y2="0.935547" gradientUnits="userSpaceOnUse">
<stop stop-color="#FD5900"/>
<stop offset="1" stop-color="#FFDE00"/>
</linearGradient>
<linearGradient id="paint1_linear_354_11210" x1="37.1483" y1="60.9356" x2="37.1483" y2="13.2402" gradientUnits="userSpaceOnUse">
<stop stop-color="#F9DE92"/>
<stop offset="1" stop-color="#FFFFD5"/>
</linearGradient>
<clipPath id="clip0_354_11210">
<rect width="60" height="60" fill="white" transform="translate(0 0.935547)"/>
</clipPath>
</defs>
</svg>
