<svg width="86" height="101" viewBox="0 0 86 101" fill="none" xmlns="http://www.w3.org/2000/svg">
<path d="M71.2297 49.3357H13.3041C10.7102 49.3357 8.60742 47.233 8.60742 44.6391C8.60742 42.0451 10.7102 39.9424 13.3041 39.9424H71.2297" fill="#3CCA0A"/>
<path d="M77.492 99.4338H13.3041C10.7102 99.4338 8.60742 97.331 8.60742 94.7371V49.3359H77.492V99.4338Z" fill="#79E0F3"/>
<path d="M35.2219 72.917H38.353V75.8524H35.2219V72.917Z" fill="white"/>
<path d="M41.4841 72.917H44.6152V75.8524H41.4841V72.917Z" fill="white"/>
<path d="M47.7463 72.917H50.8775V75.8524H47.7463V72.917Z" fill="white"/>
<path d="M77.4919 96.3027V99.4338H13.3041C11.261 99.4338 9.52128 98.1266 8.87744 96.3027H77.4919Z" fill="#2690CC"/>
<path d="M72.7953 49.3359H77.492V99.4338H72.7953V49.3359Z" fill="#2690CC"/>
<path d="M77.4919 61.8604H79.8403C82.0019 61.8604 83.7542 63.6126 83.7542 65.7742C83.7542 67.9359 82.0019 69.6881 79.8403 69.6881H77.4919" fill="#006DEE"/>
<path d="M80.623 79.0808H66.533C63.939 79.0808 61.8363 76.9781 61.8363 74.3842C61.8363 71.7902 63.939 69.6875 66.533 69.6875H83.7541V75.9497C83.7541 77.6791 82.3524 79.0808 80.623 79.0808Z" fill="#3CCA0A"/>
<path d="M80.623 69.6875V75.167C80.623 75.5992 80.2725 75.9497 79.8402 75.9497H63.4019C62.9275 75.9497 62.4698 75.8787 62.0381 75.748C62.6224 77.6765 64.4134 79.0808 66.533 79.0808H80.623C82.3524 79.0808 83.7541 77.6791 83.7541 75.9497V69.6875H80.623Z" fill="white"/>
<path d="M46.1808 28.9839C47.9101 28.9839 49.3119 27.5821 49.3119 25.8528C49.3119 24.1235 47.9101 22.7217 46.1808 22.7217C44.4515 22.7217 43.0497 24.1235 43.0497 25.8528C43.0497 27.5821 44.4515 28.9839 46.1808 28.9839Z" fill="#FEE95D"/>
<path d="M5.47621 35.2456C7.20548 35.2456 8.60732 33.8438 8.60732 32.1145C8.60732 30.3852 7.20548 28.9834 5.47621 28.9834C3.74694 28.9834 2.34509 30.3852 2.34509 32.1145C2.34509 33.8438 3.74694 35.2456 5.47621 35.2456Z" fill="#FEE95D"/>
<path d="M31.0624 8.63137C32.7917 8.63137 34.1935 7.22952 34.1935 5.50026C34.1935 3.77099 32.7917 2.36914 31.0624 2.36914C29.3331 2.36914 27.9313 3.77099 27.9313 5.50026C27.9313 7.22952 29.3331 8.63137 31.0624 8.63137Z" fill="white"/>
<path d="M33.2764 3.28642C32.9246 2.93476 32.5091 2.6876 32.0678 2.53809C32.4377 3.63085 32.1905 4.88642 31.3195 5.75746C30.4484 6.6285 29.1929 6.87566 28.1001 6.5058C28.2494 6.94709 28.4966 7.36274 28.8484 7.71441C30.0711 8.93711 32.0537 8.93711 33.2764 7.71441C34.4991 6.49171 34.4991 4.50932 33.2764 3.28642Z" fill="white"/>
<path d="M39.9186 17.4878C41.6479 17.4878 43.0497 16.086 43.0497 14.3567C43.0497 12.6274 41.6479 11.2256 39.9186 11.2256C38.1893 11.2256 36.7875 12.6274 36.7875 14.3567C36.7875 16.086 38.1893 17.4878 39.9186 17.4878Z" fill="white"/>
<path d="M42.1326 12.1419C41.7808 11.7902 41.3653 11.5431 40.924 11.3936C41.2939 12.4863 41.0467 13.7419 40.1757 14.6129C39.3046 15.484 38.0491 15.7311 36.9563 15.3613C37.1056 15.8026 37.3528 16.2182 37.7046 16.5699C38.9273 17.7926 40.9099 17.7926 42.1326 16.5699C43.3553 15.3472 43.3553 13.3648 42.1326 12.1419Z" fill="white"/>
<path d="M31.0624 14.3562C29.8397 13.1335 29.8397 11.1509 31.0624 9.92821L35.4906 5.50003C36.7133 4.27733 38.6959 4.27733 39.9186 5.50003C41.1413 6.72273 41.1413 8.70532 39.9186 9.92802L35.4906 14.356C34.2677 15.5789 32.2853 15.5789 31.0624 14.3562Z" fill="#00ADEB"/>
<path d="M40.8354 7.71526C40.8354 8.51565 40.5301 9.31604 39.9176 9.92857L35.4909 14.3552C34.2679 15.5783 32.2874 15.5783 31.0643 14.3552L39.9176 5.50195C40.5301 6.11252 40.8354 6.91291 40.8354 7.71526Z" fill="#006DEE"/>
<path d="M68.0986 10.1968C69.8279 10.1968 71.2298 8.79495 71.2298 7.06569C71.2298 5.33642 69.8279 3.93457 68.0986 3.93457C66.3694 3.93457 64.9675 5.33642 64.9675 7.06569C64.9675 8.79495 66.3694 10.1968 68.0986 10.1968Z" fill="white"/>
<path d="M65.8846 4.85185C66.2364 4.50019 66.6519 4.25303 67.0932 4.10352C66.7233 5.19627 66.9705 6.45185 67.8415 7.32289C68.7125 8.19393 69.9681 8.44109 71.0609 8.07123C70.9116 8.51252 70.6644 8.92817 70.3125 9.27984C69.0898 10.5025 67.1073 10.5025 65.8846 9.27984C64.6619 8.05714 64.6619 6.07475 65.8846 4.85185Z" fill="white"/>
<path d="M59.2424 19.0532C60.9717 19.0532 62.3736 17.6514 62.3736 15.9221C62.3736 14.1929 60.9717 12.791 59.2424 12.791C57.5132 12.791 56.1113 14.1929 56.1113 15.9221C56.1113 17.6514 57.5132 19.0532 59.2424 19.0532Z" fill="white"/>
<path d="M57.0284 13.7073C57.3802 13.3557 57.7957 13.1085 58.237 12.959C57.8671 14.0517 58.1143 15.3073 58.9853 16.1784C59.8563 17.0494 61.1119 17.2966 62.2047 16.9267C62.0554 17.368 61.8082 17.7836 61.4563 18.1353C60.2336 19.358 58.2511 19.358 57.0284 18.1353C55.8057 16.9126 55.8057 14.9302 57.0284 13.7073Z" fill="white"/>
<path d="M68.0987 15.9216C69.3214 14.6989 69.3214 12.7163 68.0987 11.4936L63.6707 7.06546C62.448 5.84276 60.4654 5.84276 59.2427 7.06546C58.02 8.28816 58.02 10.2707 59.2427 11.4934L63.6707 15.9214C64.8934 17.1443 66.876 17.1443 68.0987 15.9216Z" fill="#00ADEB"/>
<path d="M58.3257 9.28069C58.3257 10.0811 58.631 10.8815 59.2435 11.494L63.6701 15.9206C64.8932 17.1437 66.8736 17.1437 68.0967 15.9206L59.2435 7.06738C58.631 7.67795 58.3257 8.47834 58.3257 9.28069Z" fill="#006DEE"/>
<path d="M18.0986 21.156H21.034V17.9271H24.263V14.9917H21.034V11.7627H18.0986V14.9917H14.8696V17.9271H18.0986V21.156Z" fill="black"/>
<path d="M77.5898 22.7215H80.5252V19.4925H83.7542V16.5571H80.5252V13.3281H77.5898V16.5571H74.3608V19.4925H77.5898V22.7215Z" fill="black"/>
<path d="M79.8402 60.3921H78.9596V47.8676H72.6974V38.4743H53.9107V35.2453C53.9107 35.1913 53.9547 35.1474 54.0085 35.1474H75.9263C77.5989 35.1474 78.9596 33.7868 78.9596 32.1142V27.4175C78.9596 25.7449 77.5989 24.3842 75.9263 24.3842H69.6641C69.6103 24.3842 69.5663 24.3404 69.5663 24.2864V21.1553H66.6308V24.2864C66.6308 25.959 67.9915 27.3197 69.6641 27.3197H75.9263C75.9802 27.3197 76.0242 27.3635 76.0242 27.4175V32.1142C76.0242 32.1682 75.9802 32.212 75.9263 32.212H54.0085C52.3359 32.212 50.9753 33.5727 50.9753 35.2453V38.4743H39.9185V41.4097H50.9753V44.6386H53.9107V41.4097H69.762V47.8676H13.304C11.5236 47.8676 10.0751 46.4191 10.0751 44.6386C10.0751 42.8582 11.5236 41.4097 13.304 41.4097H16.4351V38.4743H13.304C9.90501 38.4743 7.13965 41.2396 7.13965 44.6386V94.7365C7.13965 98.1355 9.90501 100.901 13.304 100.901H78.9596V80.5486H80.623C83.1588 80.5486 85.2218 78.4856 85.2218 75.9498V65.7737C85.2218 62.8062 82.8075 60.3921 79.8402 60.3921ZM76.0242 97.9654H13.304C11.5236 97.9654 10.0751 96.5169 10.0751 94.7365V49.887C11.0148 50.4672 12.1209 50.803 13.304 50.803H76.0242V68.2199H72.6974V54.1298H13.4019V94.6386H72.6974V80.5486H76.0242V97.9654ZM66.533 80.5486H69.762V91.7032H16.3373V57.0653H69.762V68.2199H66.533C63.134 68.2199 60.3686 70.9852 60.3686 74.3842C60.3686 77.7833 63.134 80.5486 66.533 80.5486ZM82.2864 75.9498C82.2864 76.867 81.5402 77.6132 80.623 77.6132H66.533C64.7526 77.6132 63.304 76.1647 63.304 74.3842C63.304 72.6038 64.7526 71.1553 66.533 71.1553H79.8402C80.7205 71.1553 81.5522 70.9427 82.2864 70.5666V75.9498ZM79.8402 68.2199H78.9596V63.3275H79.8402C81.1892 63.3275 82.2864 64.4247 82.2864 65.7737C82.2864 67.1226 81.1892 68.2199 79.8402 68.2199Z" fill="black"/>
<path d="M41.5819 25.8527C41.5819 28.3885 43.6449 30.4516 46.1807 30.4516C48.7165 30.4516 50.7796 28.3885 50.7796 25.8527C50.7796 23.3169 48.7165 21.2539 46.1807 21.2539C43.6449 21.2539 41.5819 23.3169 41.5819 25.8527ZM46.1807 24.1893C47.098 24.1893 47.8441 24.9355 47.8441 25.8527C47.8441 26.77 47.098 27.5161 46.1807 27.5161C45.2635 27.5161 44.5173 26.77 44.5173 25.8527C44.5173 24.9355 45.2635 24.1893 46.1807 24.1893Z" fill="black"/>
<path d="M10.0751 32.1145C10.0751 29.5786 8.01208 27.5156 5.47627 27.5156C2.94045 27.5156 0.877441 29.5786 0.877441 32.1145C0.877441 34.6503 2.94045 36.7133 5.47627 36.7133C8.01208 36.7133 10.0751 34.6503 10.0751 32.1145ZM5.47627 33.7779C4.55905 33.7779 3.81286 33.0317 3.81286 32.1145C3.81286 31.1972 4.55905 30.451 5.47627 30.451C6.39349 30.451 7.13967 31.1972 7.13967 32.1145C7.13967 33.0317 6.39349 33.7779 5.47627 33.7779Z" fill="black"/>
<path d="M29.3437 9.76751C28.2768 11.5354 28.5003 13.8699 30.0244 15.3941C30.8929 16.2626 32.0478 16.7411 33.2762 16.7411C34.1275 16.7411 34.9433 16.511 35.6533 16.0808C35.8817 16.6456 36.2228 17.1644 36.6664 17.608C37.5349 18.4765 38.6899 18.955 39.9183 18.955C41.1465 18.955 42.3015 18.4767 43.17 17.608H43.1702C44.0386 16.7395 44.5171 15.5845 44.5171 14.3562C44.5171 13.1278 44.0388 11.9728 43.1702 11.1043C42.7181 10.6522 42.1944 10.3149 41.6355 10.0908C42.7038 8.3227 42.4807 5.98708 40.9561 4.46223C40.0876 3.59373 38.9326 3.11526 37.7042 3.11526C36.8529 3.11526 36.0371 3.3454 35.3273 3.77573C35.0989 3.21096 34.7578 2.69217 34.314 2.24833C33.4457 1.37984 32.2907 0.901367 31.0623 0.901367C29.834 0.901367 28.679 1.37984 27.8107 2.24833C26.942 3.11683 26.4635 4.27182 26.4635 5.50019C26.4635 6.72857 26.9418 7.88356 27.8105 8.75205C28.2559 9.19726 28.7766 9.53933 29.3437 9.76751ZM41.0948 15.5325C40.7805 15.8468 40.3629 16.0198 39.9185 16.0198C39.4741 16.0198 39.0567 15.8468 38.7422 15.5325C38.4281 15.2184 38.2551 14.8006 38.2551 14.3564C38.2551 13.9123 38.4279 13.4947 38.742 13.1806L38.743 13.1796C39.067 12.8558 39.4929 12.6937 39.9185 12.6937C40.3445 12.6937 40.7705 12.856 41.0948 13.1802C41.4089 13.4943 41.5819 13.9121 41.5819 14.3564C41.5819 14.8006 41.4089 15.2184 41.0948 15.5325ZM37.7046 6.05068C38.149 6.05068 38.5664 6.22368 38.8807 6.53796C39.5293 7.18649 39.5293 8.24188 38.8807 8.89041L34.4527 13.3184C34.1385 13.6327 33.7206 13.8057 33.2762 13.8057C32.8318 13.8057 32.4144 13.6327 32.1001 13.3184C31.4516 12.6699 31.4516 11.6145 32.1001 10.9659L36.5283 6.53796C36.8426 6.22387 37.2602 6.05068 37.7046 6.05068ZM29.8862 4.32407C30.2003 4.00998 30.6179 3.83679 31.0623 3.83679C31.5067 3.83679 31.9242 4.00978 32.2386 4.32407C32.5527 4.63816 32.7257 5.05597 32.7257 5.50019C32.7257 5.94442 32.5527 6.36223 32.2386 6.67632H32.2385C31.9244 6.99041 31.5067 7.1636 31.0623 7.1636C30.6179 7.1636 30.2005 6.9906 29.886 6.67632C29.5719 6.36223 29.3989 5.94442 29.3989 5.50019C29.3989 5.05597 29.5719 4.63816 29.8862 4.32407Z" fill="black"/>
<path d="M36.6896 44.6388V41.5077C36.6896 39.835 35.329 38.4744 33.6564 38.4744H22.6975C22.6436 38.4744 22.5996 38.4305 22.5996 38.3765V28.9832C22.5996 28.9292 22.6436 28.8853 22.6975 28.8853H28.9597C30.6323 28.8853 31.993 27.5247 31.993 25.8521V19.5898H29.0575V25.8521C29.0575 25.9061 29.0135 25.9499 28.9597 25.9499H22.6975C21.0248 25.9499 19.6642 27.3106 19.6642 28.9832V38.3765C19.6642 40.0491 21.0248 41.4098 22.6975 41.4098H33.6564C33.7102 41.4098 33.7542 41.4536 33.7542 41.5077V44.6388H36.6896Z" fill="black"/>
<path d="M55.9907 19.1736C56.8592 20.0421 58.0142 20.5206 59.2424 20.5206C60.4708 20.5206 61.6257 20.0421 62.494 19.1736C62.9379 18.7298 63.2792 18.211 63.5074 17.6462C64.2173 18.0764 65.033 18.3067 65.8845 18.3067C67.1128 18.3067 68.2678 17.8282 69.1363 16.9598C70.6604 15.4355 70.8839 13.101 69.8169 11.3331C70.3841 11.1048 70.905 10.7629 71.35 10.3177C72.2191 9.44899 72.6974 8.294 72.6974 7.06562C72.6974 5.83725 72.2191 4.68226 71.3504 3.81376C70.4819 2.94527 69.3269 2.4668 68.0985 2.4668C66.8702 2.4668 65.7152 2.94527 64.8469 3.81376C64.403 4.2576 64.0618 4.77639 63.8336 5.34116C63.1238 4.91102 62.3079 4.68089 61.4565 4.68089C60.2281 4.68089 59.0731 5.15936 58.2046 6.02785C56.68 7.55271 56.4569 9.88832 57.5252 11.6564C56.9663 11.8805 56.4428 12.2179 55.9907 12.6699C55.122 13.5386 54.6436 14.6934 54.6436 15.922C54.6436 17.1502 55.1218 18.305 55.9907 19.1736C55.9905 19.1736 55.9905 19.1736 55.9907 19.1736ZM60.4185 17.0979C60.1044 17.412 59.6868 17.5852 59.2424 17.5852C58.798 17.5852 58.3805 17.4122 58.0663 17.0979H58.0661C57.752 16.7838 57.579 16.366 57.579 15.9218C57.579 15.4774 57.752 15.0598 58.0663 14.7455C58.3903 14.4212 58.8164 14.2592 59.2424 14.2592C59.6682 14.2592 60.0938 14.4212 60.4181 14.7453L60.4191 14.7462C60.733 15.0603 60.9058 15.4778 60.9058 15.922C60.9058 16.366 60.7328 16.7838 60.4185 17.0979ZM66.9224 5.8895C67.2365 5.57541 67.6541 5.40222 68.0985 5.40222C68.543 5.40222 68.9604 5.57521 69.2749 5.8895C69.589 6.20359 69.7619 6.6214 69.7619 7.06562C69.7619 7.50985 69.589 7.92766 69.2747 8.24175C68.9606 8.55584 68.543 8.72903 68.0985 8.72903C67.6541 8.72903 67.2367 8.55603 66.9224 8.24175H66.9222C66.6081 7.92766 66.4351 7.50985 66.4351 7.06562C66.4351 6.6214 66.6081 6.20359 66.9224 5.8895ZM60.2803 8.10339C60.5944 7.7893 61.012 7.61611 61.4565 7.61611C61.9009 7.61611 62.3185 7.78911 62.6328 8.10339L67.0608 12.5314C67.7093 13.1799 67.7093 14.2353 67.0608 14.8838C66.7467 15.1979 66.3291 15.3711 65.8847 15.3711C65.4402 15.3711 65.0228 15.1981 64.7085 14.8838L60.2803 10.4558C59.6316 9.80731 59.6316 8.75192 60.2803 8.10339Z" fill="black"/>
</svg>
