<svg width="25" height="24" viewBox="0 0 25 24" fill="none" xmlns="http://www.w3.org/2000/svg">
<path fill-rule="evenodd" clip-rule="evenodd" d="M17.4496 3C20.7566 3 23.4466 5.69 23.4466 8.998V16.175C23.4466 19.482 20.7566 22.173 17.4496 22.173H8.80562C5.49862 22.173 2.80762 19.482 2.80762 16.175V8.998C2.80762 5.69 5.49862 3 8.80562 3H17.4496ZM17.4496 4.5H8.80562C6.32562 4.5 4.30762 6.518 4.30762 8.998V16.175C4.30762 18.655 6.32562 20.673 8.80562 20.673H17.4496C19.9296 20.673 21.9466 18.655 21.9466 16.175V15.895L18.6487 15.8956C16.7517 15.8956 15.2077 14.3526 15.2067 12.4566C15.2067 10.5586 16.7507 9.0146 18.6487 9.0136L21.9466 9.013V8.998C21.9466 6.518 19.9296 4.5 17.4496 4.5ZM21.9466 10.513L18.6487 10.5136C17.5777 10.5146 16.7067 11.3856 16.7067 12.4556C16.7067 13.5246 17.5787 14.3956 18.6487 14.3956L21.9466 14.395V10.513ZM19.1063 11.6436C19.5203 11.6436 19.8563 11.9796 19.8563 12.3936C19.8563 12.8076 19.5203 13.1436 19.1063 13.1436H18.7943C18.3803 13.1436 18.0443 12.8076 18.0443 12.3936C18.0443 11.9796 18.3803 11.6436 18.7943 11.6436H19.1063ZM13.4926 7.5381C13.9066 7.5381 14.2426 7.8741 14.2426 8.2881C14.2426 8.7021 13.9066 9.0381 13.4926 9.0381H8.09362C7.67962 9.0381 7.34362 8.7021 7.34362 8.2881C7.34362 7.8741 7.67962 7.5381 8.09362 7.5381H13.4926Z" fill="white"/>
</svg>
