<svg width="25" height="25" viewBox="0 0 25 25" fill="none" xmlns="http://www.w3.org/2000/svg">
<path fill-rule="evenodd" clip-rule="evenodd" d="M20.3015 9.55417C20.7145 9.58817 21.0225 9.94917 20.9895 10.3622C20.9835 10.4302 20.4415 17.1412 20.1295 19.9562C19.9355 21.7032 18.7815 22.7662 17.0395 22.7982C15.7065 22.8212 14.4205 22.8342 13.1635 22.8342C11.8085 22.8342 10.4875 22.8192 9.18047 22.7922C7.50847 22.7592 6.35147 21.6752 6.16247 19.9632C5.84747 17.1232 5.30847 10.4292 5.30347 10.3622C5.26947 9.94917 5.57747 9.58717 5.99047 9.55417C6.39747 9.54317 6.76547 9.82917 6.79847 10.2412C6.80166 10.2846 7.02201 13.0182 7.26213 15.7229L7.31036 16.2626C7.4313 17.607 7.5539 18.8988 7.65347 19.7982C7.76047 20.7712 8.28547 21.2732 9.21147 21.2922C11.7115 21.3452 14.2625 21.3482 17.0125 21.2982C17.9965 21.2792 18.5285 20.7872 18.6385 19.7912C18.9485 16.9972 19.4885 10.3092 19.4945 10.2412C19.5275 9.82917 19.8925 9.54117 20.3015 9.55417ZM15.2623 2.83447C16.1803 2.83447 16.9873 3.45347 17.2243 4.34047L17.4783 5.60147C17.5604 6.01485 17.9231 6.31673 18.3431 6.32336L21.6249 6.32347C22.0389 6.32347 22.3749 6.65947 22.3749 7.07347C22.3749 7.48747 22.0389 7.82347 21.6249 7.82347L18.3725 7.82332C18.3674 7.82342 18.3623 7.82347 18.3573 7.82347L18.3329 7.82247L7.95849 7.82335C7.95042 7.82343 7.94235 7.82347 7.93427 7.82347L7.91887 7.82247L4.66687 7.82347C4.25287 7.82347 3.91687 7.48747 3.91687 7.07347C3.91687 6.65947 4.25287 6.32347 4.66687 6.32347L7.94787 6.32247L8.04889 6.31608C8.42518 6.26726 8.73791 5.98147 8.81427 5.60147L9.05727 4.38547C9.30427 3.45347 10.1113 2.83447 11.0293 2.83447H15.2623ZM15.2623 4.33447H11.0293C10.7893 4.33447 10.5783 4.49547 10.5173 4.72647L10.2843 5.89647C10.2547 6.04467 10.2115 6.18749 10.1564 6.32374H16.1355C16.0802 6.18749 16.037 6.04467 16.0073 5.89647L15.7643 4.68047C15.7133 4.49547 15.5023 4.33447 15.2623 4.33447Z" fill="white"/>
</svg>
