<svg width="25" height="25" viewBox="0 0 25 25" fill="none" xmlns="http://www.w3.org/2000/svg">
<path fill-rule="evenodd" clip-rule="evenodd" d="M11.5921 2.87087C12.0061 2.87087 12.3421 3.20687 12.3421 3.62087C12.3421 4.03487 12.0061 4.37087 11.5921 4.37087H7.8531C5.2691 4.37087 3.6001 6.14087 3.6001 8.87987V17.1939C3.6001 19.9329 5.2691 21.7029 7.8531 21.7029H16.6771C19.2611 21.7029 20.9311 19.9329 20.9311 17.1939V13.1659C20.9311 12.7519 21.2671 12.4159 21.6811 12.4159C22.0951 12.4159 22.4311 12.7519 22.4311 13.1659V17.1939C22.4311 20.7879 20.1181 23.2029 16.6771 23.2029H7.8531C4.4121 23.2029 2.1001 20.7879 2.1001 17.1939V8.87987C2.1001 5.28587 4.4121 2.87087 7.8531 2.87087H11.5921ZM20.3017 3.74947L21.5187 4.96647C22.1117 5.55847 22.4377 6.34547 22.4367 7.18347C22.4367 8.02147 22.1107 8.80747 21.5187 9.39847L14.0097 16.9075C13.4587 17.4585 12.7247 17.7625 11.9447 17.7625H8.1987C7.9967 17.7625 7.8027 17.6805 7.6617 17.5355C7.5207 17.3915 7.4437 17.1965 7.4487 16.9935L7.5427 13.2145C7.5617 12.4625 7.8647 11.7555 8.3967 11.2225H8.3977L15.8707 3.74947C17.0927 2.52947 19.0797 2.52947 20.3017 3.74947ZM15.2551 6.48547L9.4577 12.2835C9.1987 12.5425 9.0517 12.8865 9.0427 13.2515L8.9677 16.2625H11.9447C12.3247 16.2625 12.6807 16.1155 12.9497 15.8465L18.7821 10.0125L15.2551 6.48547ZM16.9307 4.81047L16.3151 5.42447L19.8421 8.95247L20.4587 8.33747C20.7667 8.02947 20.9367 7.61947 20.9367 7.18347C20.9367 6.74647 20.7667 6.33547 20.4587 6.02747L19.2417 4.81047C18.6047 4.17547 17.5687 4.17547 16.9307 4.81047Z" fill="white"/>
</svg>
